<svg width="857" height="657" viewBox="0 0 857 657" fill="none" xmlns="http://www.w3.org/2000/svg">
<g filter="url(#filter0_d_301_1951)">
<rect x="60" y="30" width="737" height="537" rx="12" fill="white"/>
</g>
<path d="M256.692 102.4H262.2C263.544 102.4 264.738 102.664 265.782 103.192C266.826 103.708 267.636 104.446 268.212 105.406C268.788 106.354 269.076 107.452 269.076 108.7C269.076 109.948 268.788 111.052 268.212 112.012C267.636 112.96 266.826 113.698 265.782 114.226C264.738 114.742 263.544 115 262.2 115H256.692V102.4ZM262.092 113.02C263.016 113.02 263.826 112.846 264.522 112.498C265.23 112.138 265.77 111.634 266.142 110.986C266.526 110.326 266.718 109.564 266.718 108.7C266.718 107.836 266.526 107.08 266.142 106.432C265.77 105.772 265.23 105.268 264.522 104.92C263.826 104.56 263.016 104.38 262.092 104.38H259.032V113.02H262.092ZM275.019 105.28C276.435 105.28 277.515 105.622 278.259 106.306C279.015 106.978 279.393 107.998 279.393 109.366V115H277.269V113.83C276.993 114.25 276.597 114.574 276.081 114.802C275.577 115.018 274.965 115.126 274.245 115.126C273.525 115.126 272.895 115.006 272.355 114.766C271.815 114.514 271.395 114.172 271.095 113.74C270.807 113.296 270.663 112.798 270.663 112.246C270.663 111.382 270.981 110.692 271.617 110.176C272.265 109.648 273.279 109.384 274.659 109.384H277.143V109.24C277.143 108.568 276.939 108.052 276.531 107.692C276.135 107.332 275.541 107.152 274.749 107.152C274.209 107.152 273.675 107.236 273.147 107.404C272.631 107.572 272.193 107.806 271.833 108.106L270.951 106.468C271.455 106.084 272.061 105.79 272.769 105.586C273.477 105.382 274.227 105.28 275.019 105.28ZM274.713 113.488C275.277 113.488 275.775 113.362 276.207 113.11C276.651 112.846 276.963 112.474 277.143 111.994V110.878H274.821C273.525 110.878 272.877 111.304 272.877 112.156C272.877 112.564 273.039 112.888 273.363 113.128C273.687 113.368 274.137 113.488 274.713 113.488ZM285.251 115.126C284.471 115.126 283.709 115.024 282.965 114.82C282.221 114.616 281.627 114.358 281.183 114.046L282.047 112.336C282.479 112.624 282.995 112.858 283.595 113.038C284.207 113.206 284.807 113.29 285.395 113.29C286.739 113.29 287.411 112.936 287.411 112.228C287.411 111.892 287.237 111.658 286.889 111.526C286.553 111.394 286.007 111.268 285.251 111.148C284.459 111.028 283.811 110.89 283.307 110.734C282.815 110.578 282.383 110.308 282.011 109.924C281.651 109.528 281.471 108.982 281.471 108.286C281.471 107.374 281.849 106.648 282.605 106.108C283.373 105.556 284.405 105.28 285.701 105.28C286.361 105.28 287.021 105.358 287.681 105.514C288.341 105.658 288.881 105.856 289.301 106.108L288.437 107.818C287.621 107.338 286.703 107.098 285.683 107.098C285.023 107.098 284.519 107.2 284.171 107.404C283.835 107.596 283.667 107.854 283.667 108.178C283.667 108.538 283.847 108.796 284.207 108.952C284.579 109.096 285.149 109.234 285.917 109.366C286.685 109.486 287.315 109.624 287.807 109.78C288.299 109.936 288.719 110.2 289.067 110.572C289.427 110.944 289.607 111.472 289.607 112.156C289.607 113.056 289.217 113.776 288.437 114.316C287.657 114.856 286.595 115.126 285.251 115.126ZM296.998 105.28C298.21 105.28 299.182 105.634 299.914 106.342C300.646 107.05 301.012 108.1 301.012 109.492V115H298.762V109.78C298.762 108.94 298.564 108.31 298.168 107.89C297.772 107.458 297.208 107.242 296.476 107.242C295.648 107.242 294.994 107.494 294.514 107.998C294.034 108.49 293.794 109.204 293.794 110.14V115H291.544V101.644H293.794V106.504C294.166 106.108 294.622 105.808 295.162 105.604C295.714 105.388 296.326 105.28 296.998 105.28ZM309.195 105.28C310.131 105.28 310.965 105.484 311.697 105.892C312.441 106.3 313.023 106.876 313.443 107.62C313.863 108.364 314.073 109.222 314.073 110.194C314.073 111.166 313.863 112.03 313.443 112.786C313.023 113.53 312.441 114.106 311.697 114.514C310.965 114.922 310.131 115.126 309.195 115.126C308.535 115.126 307.929 115.012 307.377 114.784C306.837 114.556 306.381 114.214 306.009 113.758V115H303.867V101.644H306.117V106.558C306.501 106.138 306.951 105.82 307.467 105.604C307.995 105.388 308.571 105.28 309.195 105.28ZM308.943 113.2C309.771 113.2 310.449 112.924 310.977 112.372C311.517 111.82 311.787 111.094 311.787 110.194C311.787 109.294 311.517 108.568 310.977 108.016C310.449 107.464 309.771 107.188 308.943 107.188C308.403 107.188 307.917 107.314 307.485 107.566C307.053 107.806 306.711 108.154 306.459 108.61C306.207 109.066 306.081 109.594 306.081 110.194C306.081 110.794 306.207 111.322 306.459 111.778C306.711 112.234 307.053 112.588 307.485 112.84C307.917 113.08 308.403 113.2 308.943 113.2ZM320.526 115.126C319.554 115.126 318.678 114.916 317.898 114.496C317.118 114.076 316.506 113.494 316.062 112.75C315.63 111.994 315.414 111.142 315.414 110.194C315.414 109.246 315.63 108.4 316.062 107.656C316.506 106.912 317.118 106.33 317.898 105.91C318.678 105.49 319.554 105.28 320.526 105.28C321.51 105.28 322.392 105.49 323.172 105.91C323.952 106.33 324.558 106.912 324.99 107.656C325.434 108.4 325.656 109.246 325.656 110.194C325.656 111.142 325.434 111.994 324.99 112.75C324.558 113.494 323.952 114.076 323.172 114.496C322.392 114.916 321.51 115.126 320.526 115.126ZM320.526 113.2C321.354 113.2 322.038 112.924 322.578 112.372C323.118 111.82 323.388 111.094 323.388 110.194C323.388 109.294 323.118 108.568 322.578 108.016C322.038 107.464 321.354 107.188 320.526 107.188C319.698 107.188 319.014 107.464 318.474 108.016C317.946 108.568 317.682 109.294 317.682 110.194C317.682 111.094 317.946 111.82 318.474 112.372C319.014 112.924 319.698 113.2 320.526 113.2ZM331.357 105.28C332.773 105.28 333.853 105.622 334.597 106.306C335.353 106.978 335.731 107.998 335.731 109.366V115H333.607V113.83C333.331 114.25 332.935 114.574 332.419 114.802C331.915 115.018 331.303 115.126 330.583 115.126C329.863 115.126 329.233 115.006 328.693 114.766C328.153 114.514 327.733 114.172 327.433 113.74C327.145 113.296 327.001 112.798 327.001 112.246C327.001 111.382 327.319 110.692 327.955 110.176C328.603 109.648 329.617 109.384 330.997 109.384H333.481V109.24C333.481 108.568 333.277 108.052 332.869 107.692C332.473 107.332 331.879 107.152 331.087 107.152C330.547 107.152 330.013 107.236 329.485 107.404C328.969 107.572 328.531 107.806 328.171 108.106L327.289 106.468C327.793 106.084 328.399 105.79 329.107 105.586C329.815 105.382 330.565 105.28 331.357 105.28ZM331.051 113.488C331.615 113.488 332.113 113.362 332.545 113.11C332.989 112.846 333.301 112.474 333.481 111.994V110.878H331.159C329.863 110.878 329.215 111.304 329.215 112.156C329.215 112.564 329.377 112.888 329.701 113.128C330.025 113.368 330.475 113.488 331.051 113.488ZM340.761 106.792C341.409 105.784 342.549 105.28 344.181 105.28V107.422C343.989 107.386 343.815 107.368 343.659 107.368C342.783 107.368 342.099 107.626 341.607 108.142C341.115 108.646 340.869 109.378 340.869 110.338V115H338.619V105.388H340.761V106.792ZM355.415 101.644V115H353.255V113.758C352.883 114.214 352.421 114.556 351.869 114.784C351.329 115.012 350.729 115.126 350.069 115.126C349.145 115.126 348.311 114.922 347.567 114.514C346.835 114.106 346.259 113.53 345.839 112.786C345.419 112.03 345.209 111.166 345.209 110.194C345.209 109.222 345.419 108.364 345.839 107.62C346.259 106.876 346.835 106.3 347.567 105.892C348.311 105.484 349.145 105.28 350.069 105.28C350.705 105.28 351.287 105.388 351.815 105.604C352.343 105.82 352.793 106.144 353.165 106.576V101.644H355.415ZM350.339 113.2C350.879 113.2 351.365 113.08 351.797 112.84C352.229 112.588 352.571 112.234 352.823 111.778C353.075 111.322 353.201 110.794 353.201 110.194C353.201 109.594 353.075 109.066 352.823 108.61C352.571 108.154 352.229 107.806 351.797 107.566C351.365 107.314 350.879 107.188 350.339 107.188C349.799 107.188 349.313 107.314 348.881 107.566C348.449 107.806 348.107 108.154 347.855 108.61C347.603 109.066 347.477 109.594 347.477 110.194C347.477 110.794 347.603 111.322 347.855 111.778C348.107 112.234 348.449 112.588 348.881 112.84C349.313 113.08 349.799 113.2 350.339 113.2Z" fill="#2D1352"/>
<rect x="71" y="40" width="154" height="517" rx="12" fill="#7B34E7"/>
<path d="M130.617 101.181C129.603 102.001 128.472 102.291 127.231 102.269C125.09 102.231 123.444 100.884 123.308 98.7271C123.156 96.3271 123.196 93.9132 123.218 91.5062C123.227 90.5704 123.961 89.9315 124.755 89.9851C125.582 90.042 126.131 90.6861 126.136 91.6478C126.147 93.5126 126.117 95.3774 126.148 97.2405C126.178 98.9102 127.039 99.6906 128.633 99.5698C129.904 99.4748 130.615 98.6978 130.646 97.2457C130.689 95.3256 130.65 93.4021 130.681 91.4803C130.696 90.5842 131.323 89.9885 132.136 89.9954C132.898 90.0023 133.492 90.598 133.566 91.432C133.578 91.5753 133.576 91.7186 133.576 91.8619C133.576 94.8732 133.566 97.8845 133.575 100.896C133.587 105.059 131.03 106.511 127.429 106.487C126.639 106.482 125.832 106.292 125.066 106.072C124.042 105.781 123.57 104.957 123.84 104.135C124.121 103.273 124.845 103.065 125.951 103.355C126.768 103.569 127.637 103.731 128.474 103.695C129.978 103.631 130.615 102.83 130.617 101.181Z" fill="white"/>
<path d="M152.243 91.0016C154.759 89.3785 156.857 89.3681 158.832 90.9929C161.79 93.4275 161.718 98.9753 158.635 101.239C156.57 102.755 154.41 102.586 152.114 101.106C152.114 101.871 152.116 102.505 152.114 103.137C152.11 103.794 152.143 104.457 152.085 105.112C152.007 105.968 151.439 106.448 150.594 106.466C149.857 106.481 149.293 105.963 149.161 105.145C149.139 105.005 149.144 104.86 149.144 104.716C149.144 100.391 149.135 96.0659 149.149 91.7423C149.153 90.4628 149.962 89.7515 151.047 90.1106C151.466 90.2505 151.8 90.6597 152.243 91.0016ZM158.133 95.9001C158.123 95.7464 158.123 95.4581 158.081 95.1766C157.757 93.0304 155.529 91.8114 153.721 92.8077C152.464 93.5 152 94.65 151.986 96.0279C151.972 97.3799 152.447 98.4953 153.633 99.2101C153.963 99.4087 154.379 99.5157 154.766 99.5537C156.736 99.7488 158.124 98.2794 158.133 95.9001Z" fill="white"/>
<path d="M143.572 101.223C142.548 102.004 141.46 102.275 140.276 102.266C138.062 102.251 136.41 100.92 136.279 98.7163C136.13 96.2593 136.203 93.7867 136.23 91.321C136.239 90.4957 136.9 90.0001 137.75 90.0243C138.508 90.0467 139.052 90.5924 139.062 91.4367C139.086 93.3291 139.055 95.2215 139.078 97.1157C139.097 98.7405 139.791 99.5192 141.208 99.5744C142.705 99.6349 143.607 98.8095 143.624 97.3073C143.646 95.4719 143.603 93.6365 143.651 91.801C143.664 91.3486 143.793 90.7685 144.093 90.4888C144.411 90.1935 145.048 89.9967 145.451 90.1054C145.855 90.2159 146.172 90.7339 146.462 91.1224C146.58 91.2796 146.545 91.5679 146.544 91.7958C146.53 95.0074 146.566 98.219 146.473 101.429C146.39 104.271 145.114 105.716 142.343 106.327C140.821 106.662 139.316 106.542 137.86 105.994C137.173 105.737 136.66 105.272 136.772 104.444C136.914 103.396 137.667 103.009 138.725 103.269C139.63 103.492 140.568 103.674 141.493 103.691C142.883 103.718 143.784 102.467 143.572 101.223Z" fill="white"/>
<path d="M101.336 88.0094C105.061 87.8246 107.255 90.3904 107.416 93.8023C107.504 95.6827 107.108 97.601 106.799 99.4796C106.675 100.236 106.314 101.18 105.356 101.175C104.449 101.168 104.37 100.212 104.111 99.5314C103.653 98.3296 103.22 97.1158 102.718 95.933C102.122 94.5275 100.994 93.7229 99.5128 93.4967C98.1022 93.2809 96.6725 93.1773 95.2497 93.0443C94.395 92.9632 93.3815 93.0547 93.1035 92.0135C92.8134 90.9343 93.7285 90.4129 94.4917 89.9881C96.6138 88.8088 98.8463 87.9507 101.336 88.0094Z" fill="white"/>
<path d="M117.258 92.9322C115.766 92.9322 114.526 93.0081 113.306 92.8924C112.857 92.8493 112.314 92.4383 112.069 92.0395C111.891 91.7494 112.014 91.1347 112.218 90.7928C112.382 90.5183 112.867 90.299 113.214 90.2921C115.51 90.2489 117.809 90.2472 120.107 90.28C121.322 90.299 121.795 91.575 121.006 92.7198C120.454 93.5209 119.82 94.2669 119.221 95.0352C118.306 96.2128 117.387 97.3869 116.474 98.5663C116.308 98.7804 116.168 99.0152 115.908 99.4002C117.372 99.4002 118.653 99.3933 119.932 99.402C121 99.4106 121.587 99.8975 121.566 100.733C121.545 101.56 120.922 102.071 119.905 102.073C117.779 102.077 115.654 102.061 113.528 102.078C112.858 102.083 112.116 102.042 111.952 101.343C111.819 100.776 111.905 99.9856 112.225 99.5211C113.311 97.9395 114.544 96.4597 115.718 94.9403C116.186 94.3377 116.648 93.7281 117.258 92.9322Z" fill="white"/>
<path d="M97.1646 95.8691C98.7462 95.8985 99.9376 96.6789 100.709 97.8997C101.493 99.1412 102.011 100.552 102.633 101.895C102.702 102.044 102.733 102.249 102.688 102.399C102.588 102.734 102.509 103.169 102.263 103.339C102.08 103.465 101.597 103.321 101.347 103.152C100.706 102.722 100.103 102.23 99.518 101.726C98.0418 100.453 96.4705 100.305 94.7749 101.253C94.0756 101.643 93.3884 102.078 92.6459 102.36C92.2143 102.522 91.5737 102.589 91.2318 102.375C90.9935 102.227 90.9279 101.45 91.0868 101.082C92.0002 98.9409 93.4298 97.2211 95.5899 96.2266C96.0665 96.0038 96.638 95.9814 97.1646 95.8691Z" fill="white"/>
<circle cx="84.5" cy="58.5" r="3.5" fill="#FF6051"/>
<circle cx="94.5" cy="58.5" r="3.5" fill="#FEBE05"/>
<circle cx="104.5" cy="58.5" r="3.5" fill="#1ECB3D"/>
<g opacity="0.15">
<path fill-rule="evenodd" clip-rule="evenodd" d="M111 177C111 175.895 111.895 175 113 175H169C170.105 175 171 175.895 171 177V183C171 184.105 170.105 185 169 185H113C111.895 185 111 184.105 111 183V177Z" fill="white"/>
<rect x="91" y="175" width="10" height="10" rx="5" fill="white"/>
<path fill-rule="evenodd" clip-rule="evenodd" d="M111 212C111 210.895 111.895 210 113 210H198C199.105 210 200 210.895 200 212V218C200 219.105 199.105 220 198 220H113C111.895 220 111 219.105 111 218V212Z" fill="white"/>
<rect x="91" y="210" width="10" height="10" rx="5" fill="white"/>
<path fill-rule="evenodd" clip-rule="evenodd" d="M111 247C111 245.895 111.895 245 113 245H161C162.105 245 163 245.895 163 247V253C163 254.105 162.105 255 161 255H113C111.895 255 111 254.105 111 253V247Z" fill="white"/>
<rect x="91" y="245" width="10" height="10" rx="5" fill="white"/>
<path fill-rule="evenodd" clip-rule="evenodd" d="M111 282C111 280.895 111.895 280 113 280H184C185.105 280 186 280.895 186 282V288C186 289.105 185.105 290 184 290H113C111.895 290 111 289.105 111 288V282Z" fill="white"/>
<rect x="91" y="280" width="10" height="10" rx="5" fill="white"/>
<path fill-rule="evenodd" clip-rule="evenodd" d="M111 317C111 315.895 111.895 315 113 315H184C185.105 315 186 315.895 186 317V323C186 324.105 185.105 325 184 325H113C111.895 325 111 324.105 111 323V317Z" fill="white"/>
<path fill-rule="evenodd" clip-rule="evenodd" d="M111 514C111 512.895 111.895 512 113 512H169C170.105 512 171 512.895 171 514V520C171 521.105 170.105 522 169 522H113C111.895 522 111 521.105 111 520V514Z" fill="white"/>
<rect x="91" y="315" width="10" height="10" rx="5" fill="white"/>
<rect x="91" y="512" width="10" height="10" rx="5" fill="white"/>
</g>
<path d="M122.852 143C125.511 143 127.122 141.355 127.122 138.628C127.122 135.909 125.511 134.273 122.878 134.273H119.759V143H122.852ZM121.604 141.419V135.854H122.78C124.416 135.854 125.281 136.689 125.281 138.628C125.281 140.575 124.416 141.419 122.776 141.419H121.604ZM130.321 143.124C131.289 143.124 131.915 142.702 132.235 142.092H132.286V143H134.007V138.585C134.007 137.026 132.686 136.369 131.229 136.369C129.661 136.369 128.63 137.119 128.378 138.312L130.057 138.449C130.181 138.014 130.569 137.695 131.221 137.695C131.838 137.695 132.192 138.006 132.192 138.543V138.568C132.192 138.99 131.745 139.045 130.607 139.156C129.311 139.276 128.148 139.71 128.148 141.172C128.148 142.467 129.073 143.124 130.321 143.124ZM130.841 141.871C130.283 141.871 129.882 141.611 129.882 141.112C129.882 140.601 130.304 140.349 130.944 140.26C131.34 140.205 131.988 140.111 132.205 139.966V140.661C132.205 141.347 131.638 141.871 130.841 141.871ZM140.862 138.321C140.7 137.115 139.728 136.369 138.075 136.369C136.4 136.369 135.297 137.145 135.301 138.406C135.297 139.386 135.914 140.021 137.193 140.277L138.326 140.503C138.897 140.618 139.157 140.827 139.166 141.155C139.157 141.543 138.735 141.82 138.1 141.82C137.453 141.82 137.022 141.543 136.912 141.01L135.126 141.104C135.297 142.357 136.362 143.128 138.096 143.128C139.792 143.128 141.007 142.263 141.011 140.972C141.007 140.026 140.389 139.459 139.119 139.199L137.934 138.96C137.325 138.828 137.099 138.619 137.103 138.304C137.099 137.912 137.542 137.656 138.105 137.656C138.735 137.656 139.11 138.001 139.2 138.423L140.862 138.321ZM143.969 139.216C143.974 138.372 144.489 137.878 145.231 137.878C145.968 137.878 146.403 138.351 146.398 139.156V143H148.214V138.832C148.218 137.298 147.315 136.369 145.951 136.369C144.958 136.369 144.293 136.838 143.995 137.609H143.918V134.273H142.154V143H143.969V139.216ZM149.676 143H151.466V141.952H151.547C151.799 142.497 152.348 143.107 153.405 143.107C154.897 143.107 156.06 141.926 156.06 139.736C156.06 137.486 154.846 136.369 153.409 136.369C152.314 136.369 151.79 137.021 151.547 137.554H151.492V134.273H149.676V143ZM151.453 139.727C151.453 138.56 151.948 137.814 152.83 137.814C153.729 137.814 154.206 138.594 154.206 139.727C154.206 140.869 153.721 141.662 152.83 141.662C151.956 141.662 151.453 140.895 151.453 139.727ZM160.229 143.128C162.214 143.128 163.45 141.768 163.45 139.753C163.45 137.724 162.214 136.369 160.229 136.369C158.243 136.369 157.007 137.724 157.007 139.753C157.007 141.768 158.243 143.128 160.229 143.128ZM160.237 141.722C159.321 141.722 158.852 140.882 158.852 139.74C158.852 138.598 159.321 137.754 160.237 137.754C161.136 137.754 161.605 138.598 161.605 139.74C161.605 140.882 161.136 141.722 160.237 141.722ZM166.497 143.124C167.464 143.124 168.091 142.702 168.411 142.092H168.462V143H170.183V138.585C170.183 137.026 168.862 136.369 167.405 136.369C165.837 136.369 164.805 137.119 164.554 138.312L166.233 138.449C166.357 138.014 166.744 137.695 167.396 137.695C168.014 137.695 168.368 138.006 168.368 138.543V138.568C168.368 138.99 167.92 139.045 166.783 139.156C165.487 139.276 164.324 139.71 164.324 141.172C164.324 142.467 165.249 143.124 166.497 143.124ZM167.017 141.871C166.459 141.871 166.058 141.611 166.058 141.112C166.058 140.601 166.48 140.349 167.119 140.26C167.516 140.205 168.163 140.111 168.381 139.966V140.661C168.381 141.347 167.814 141.871 167.017 141.871ZM171.592 143H173.407V139.297C173.407 138.491 173.995 137.938 174.796 137.938C175.048 137.938 175.393 137.98 175.563 138.036V136.425C175.401 136.386 175.175 136.361 174.992 136.361C174.259 136.361 173.658 136.787 173.42 137.597H173.352V136.455H171.592V143ZM178.609 143.107C179.666 143.107 180.216 142.497 180.467 141.952H180.544V143H182.333V134.273H180.522V137.554H180.467C180.224 137.021 179.7 136.369 178.605 136.369C177.169 136.369 175.954 137.486 175.954 139.736C175.954 141.926 177.118 143.107 178.609 143.107ZM179.184 141.662C178.294 141.662 177.808 140.869 177.808 139.727C177.808 138.594 178.285 137.814 179.184 137.814C180.066 137.814 180.561 138.56 180.561 139.727C180.561 140.895 180.058 141.662 179.184 141.662Z" fill="white"/>
<path opacity="0.5" d="M97.25 140.972H102.875V144.861H97.25V140.972Z" fill="white"/>
<path d="M108.5 135.139H97.25V139.028H108.5V135.139Z" fill="white"/>
<path d="M95.375 134.167H93.5V145.833H95.375V134.167Z" fill="white"/>
<ellipse cx="260.219" cy="58.3683" rx="5.21914" ry="5.36826" stroke="#99A6B9" stroke-width="1.5" stroke-linecap="round" stroke-linejoin="round"/>
<path d="M263.849 62.3809L265.895 64.4801" stroke="#99A6B9" stroke-width="1.5" stroke-linecap="round" stroke-linejoin="round"/>
<path d="M277.312 54.176C277.936 53.728 278.68 53.504 279.544 53.504C280.672 53.504 281.692 53.82 282.604 54.452V55.928C282.14 55.6 281.636 55.336 281.092 55.136C280.556 54.928 280.04 54.824 279.544 54.824C279.072 54.824 278.664 54.924 278.32 55.124C277.976 55.316 277.804 55.58 277.804 55.916C277.804 56.092 277.864 56.248 277.984 56.384C278.104 56.52 278.264 56.632 278.464 56.72C278.664 56.808 278.904 56.892 279.184 56.972C279.464 57.044 279.752 57.116 280.048 57.188C280.104 57.196 280.148 57.204 280.18 57.212C281.18 57.46 281.884 57.796 282.292 58.22C282.7 58.644 282.904 59.14 282.904 59.708C282.904 60.228 282.744 60.676 282.424 61.052C282.112 61.42 281.724 61.688 281.26 61.856C280.796 62.016 280.3 62.096 279.772 62.096C279.748 62.096 279.724 62.096 279.7 62.096C278.46 62.08 277.396 61.676 276.508 60.884V59.396C277.556 60.308 278.652 60.764 279.796 60.764C280.268 60.764 280.668 60.676 280.996 60.5C281.324 60.316 281.488 60.052 281.488 59.708C281.488 59.396 281.316 59.132 280.972 58.916C280.628 58.7 280.024 58.488 279.16 58.28C278.208 58.048 277.504 57.744 277.048 57.368C276.6 56.992 276.376 56.512 276.376 55.928C276.376 55.208 276.688 54.624 277.312 54.176ZM284.636 56.492C285.276 55.852 286.044 55.532 286.94 55.532C287.74 55.532 288.436 55.792 289.028 56.312C289.628 56.824 289.996 57.468 290.132 58.244C290.18 58.436 290.204 58.628 290.204 58.82C290.204 58.988 290.184 59.156 290.144 59.324H285.032C285.112 59.796 285.328 60.172 285.68 60.452C286.04 60.732 286.46 60.872 286.94 60.872C287.676 60.872 288.264 60.608 288.704 60.08L289.928 60.404C289.672 60.916 289.26 61.328 288.692 61.64C288.132 61.944 287.548 62.096 286.94 62.096C286.02 62.096 285.244 61.776 284.612 61.136C283.988 60.496 283.676 59.724 283.676 58.82C283.676 57.908 283.996 57.132 284.636 56.492ZM285.032 58.268H288.8C288.72 57.844 288.508 57.488 288.164 57.2C287.828 56.904 287.416 56.756 286.928 56.756C286.44 56.756 286.024 56.904 285.68 57.2C285.336 57.488 285.12 57.844 285.032 58.268ZM291.901 56.492C292.517 55.852 293.265 55.532 294.145 55.532C295.001 55.532 295.681 55.852 296.185 56.492V55.64H297.565V62H296.185V61.148C295.681 61.78 295.001 62.096 294.145 62.096C293.273 62.096 292.525 61.776 291.901 61.136C291.285 60.488 290.977 59.716 290.977 58.82C290.977 57.908 291.285 57.132 291.901 56.492ZM292.261 58.82C292.261 59.38 292.453 59.86 292.837 60.26C293.229 60.652 293.705 60.848 294.265 60.848C294.817 60.848 295.289 60.648 295.681 60.248C296.081 59.848 296.281 59.372 296.281 58.82C296.281 58.268 296.081 57.792 295.681 57.392C295.289 56.984 294.817 56.78 294.265 56.78C293.705 56.78 293.229 56.98 292.837 57.38C292.453 57.78 292.261 58.26 292.261 58.82ZM298.879 55.64H300.259V56.684C300.459 56.284 300.731 56 301.075 55.832C301.427 55.656 301.787 55.568 302.155 55.568C302.331 55.568 302.515 55.584 302.707 55.616V57.092C302.459 57.012 302.223 56.972 301.999 56.972C301.639 56.972 301.259 57.104 300.859 57.368C300.459 57.632 300.259 58.1 300.259 58.772V62H298.879V55.64ZM304.124 56.492C304.764 55.852 305.532 55.532 306.428 55.532C307.1 55.532 307.708 55.724 308.252 56.108C308.796 56.484 309.188 56.98 309.428 57.596L308.156 57.944C307.996 57.592 307.764 57.312 307.46 57.104C307.156 56.888 306.812 56.78 306.428 56.78C305.876 56.78 305.408 56.98 305.024 57.38C304.64 57.78 304.448 58.26 304.448 58.82C304.448 59.372 304.64 59.848 305.024 60.248C305.408 60.648 305.876 60.848 306.428 60.848C306.812 60.848 307.156 60.744 307.46 60.536C307.772 60.32 308.004 60.04 308.156 59.696L309.428 60.032C309.18 60.648 308.788 61.148 308.252 61.532C307.716 61.908 307.108 62.096 306.428 62.096C305.516 62.096 304.744 61.776 304.112 61.136C303.48 60.488 303.164 59.716 303.164 58.82C303.164 57.908 303.484 57.132 304.124 56.492ZM310.388 53.6H311.768V56.48C312.264 55.848 312.928 55.532 313.76 55.532C314.488 55.532 315.112 55.768 315.632 56.24C316.16 56.704 316.424 57.324 316.424 58.1V62H315.044V58.472C315.044 57.968 314.892 57.568 314.588 57.272C314.284 56.968 313.916 56.816 313.484 56.816C312.98 56.816 312.568 57 312.248 57.368C311.928 57.728 311.768 58.18 311.768 58.724V62H310.388V53.6ZM321.713 56.492C322.329 55.852 323.077 55.532 323.957 55.532C324.813 55.532 325.493 55.852 325.997 56.492V55.64H327.377V62H325.997V61.148C325.493 61.78 324.813 62.096 323.957 62.096C323.085 62.096 322.337 61.776 321.713 61.136C321.097 60.488 320.789 59.716 320.789 58.82C320.789 57.908 321.097 57.132 321.713 56.492ZM322.073 58.82C322.073 59.38 322.265 59.86 322.649 60.26C323.041 60.652 323.517 60.848 324.077 60.848C324.629 60.848 325.101 60.648 325.493 60.248C325.893 59.848 326.093 59.372 326.093 58.82C326.093 58.268 325.893 57.792 325.493 57.392C325.101 56.984 324.629 56.78 324.077 56.78C323.517 56.78 323.041 56.98 322.649 57.38C322.265 57.78 322.073 58.26 322.073 58.82ZM328.692 55.64H330.072V56.48C330.56 55.848 331.22 55.532 332.052 55.532C332.78 55.532 333.404 55.768 333.924 56.24C334.452 56.704 334.716 57.324 334.716 58.1V62H333.336V58.472C333.336 57.968 333.184 57.568 332.88 57.272C332.584 56.968 332.216 56.816 331.776 56.816C331.272 56.816 330.86 57 330.54 57.368C330.228 57.728 330.072 58.18 330.072 58.724V62H328.692V55.64ZM335.102 55.64H336.578L338.462 60.344L340.262 55.64H341.738L338.174 64.52H336.734L337.754 61.964L335.102 55.64ZM342.326 56.84V55.64H343.526V54.116L344.882 53.72V55.64H346.838V56.84H344.882V59.936C344.882 60.328 344.994 60.572 345.218 60.668C345.45 60.764 345.658 60.812 345.842 60.812C346.13 60.812 346.478 60.748 346.886 60.62V61.952C346.454 62.072 346.058 62.132 345.698 62.132C345.226 62.132 344.746 61.996 344.258 61.724C343.77 61.444 343.526 60.852 343.526 59.948V56.84H342.326ZM347.982 53.6H349.362V56.48C349.858 55.848 350.522 55.532 351.354 55.532C352.082 55.532 352.706 55.768 353.226 56.24C353.754 56.704 354.018 57.324 354.018 58.1V62H352.638V58.472C352.638 57.968 352.486 57.568 352.182 57.272C351.878 56.968 351.51 56.816 351.078 56.816C350.574 56.816 350.162 57 349.842 57.368C349.522 57.728 349.362 58.18 349.362 58.724V62H347.982V53.6ZM356.734 55.64V62H355.354V55.64H356.734ZM355.426 53.42C355.602 53.252 355.814 53.168 356.062 53.168C356.31 53.168 356.518 53.252 356.686 53.42C356.862 53.58 356.95 53.784 356.95 54.032C356.95 54.28 356.866 54.484 356.698 54.644C356.522 54.812 356.31 54.896 356.062 54.896C355.814 54.896 355.602 54.816 355.426 54.656C355.25 54.488 355.162 54.28 355.162 54.032C355.162 53.792 355.25 53.588 355.426 53.42ZM358.094 55.64H359.474V56.48C359.962 55.848 360.622 55.532 361.454 55.532C362.182 55.532 362.806 55.768 363.326 56.24C363.854 56.704 364.118 57.324 364.118 58.1V62H362.738V58.472C362.738 57.968 362.586 57.568 362.282 57.272C361.986 56.968 361.618 56.816 361.178 56.816C360.674 56.816 360.262 57 359.942 57.368C359.63 57.728 359.474 58.18 359.474 58.724V62H358.094V55.64ZM365.074 58.724C365.074 57.804 365.374 57.044 365.974 56.444C366.574 55.836 367.306 55.532 368.17 55.532C368.194 55.532 368.218 55.532 368.242 55.532C369.098 55.54 369.778 55.856 370.282 56.48V55.64H371.662V61.52C371.662 62.528 371.358 63.32 370.75 63.896C370.15 64.472 369.406 64.76 368.518 64.76C367.782 64.76 367.118 64.556 366.526 64.148C365.934 63.74 365.546 63.144 365.362 62.36H366.742C366.878 62.744 367.11 63.024 367.438 63.2C367.774 63.384 368.13 63.476 368.506 63.476C369.026 63.476 369.45 63.316 369.778 62.996C370.106 62.676 370.274 62.192 370.282 61.544V61.028C369.786 61.62 369.106 61.916 368.242 61.916C367.33 61.916 366.574 61.612 365.974 61.004C365.374 60.388 365.074 59.628 365.074 58.724ZM366.358 58.724C366.358 59.276 366.554 59.74 366.946 60.116C367.338 60.492 367.81 60.68 368.362 60.68C368.914 60.68 369.386 60.492 369.778 60.116C370.178 59.732 370.378 59.268 370.378 58.724C370.378 58.18 370.182 57.72 369.79 57.344C369.398 56.96 368.922 56.768 368.362 56.768C367.802 56.768 367.326 56.956 366.934 57.332C366.55 57.708 366.358 58.172 366.358 58.724Z" fill="#AEB9C9"/>
<path fill-rule="evenodd" clip-rule="evenodd" d="M754.107 56.9362C754.107 54.7122 756.125 52.2681 759.16 52.2681C762.195 52.2681 764.213 54.7122 764.213 56.9362C764.213 57.515 764.285 57.9214 764.383 58.2345C764.482 58.5484 764.613 58.7892 764.763 59.0474C764.778 59.0738 764.794 59.1007 764.81 59.1281C764.947 59.362 765.104 59.6318 765.225 59.956C765.364 60.3291 765.45 60.7621 765.45 61.3254C765.45 61.3397 765.45 61.354 765.448 61.3683C765.399 61.9496 765.232 62.4594 764.912 62.8851C764.592 63.3098 764.15 63.6128 763.614 63.8286C762.569 64.2498 761.076 64.3724 759.16 64.3724C757.245 64.3724 755.752 64.2517 754.707 63.8316C754.171 63.6163 753.728 63.3134 753.409 62.8882C753.089 62.462 752.921 61.9512 752.872 61.3683C752.871 61.3541 752.87 61.3397 752.87 61.3254C752.87 60.7621 752.957 60.3291 753.095 59.956C753.216 59.6318 753.374 59.362 753.51 59.1281C753.526 59.1007 753.542 59.0739 753.558 59.0474C753.707 58.7892 753.839 58.5484 753.937 58.2345C754.035 57.9214 754.107 57.515 754.107 56.9362ZM759.16 53.2881C756.694 53.2881 755.127 55.2701 755.127 56.9362C755.127 57.6025 755.044 58.1137 754.91 58.5398C754.777 58.9653 754.599 59.2856 754.44 59.5597C754.424 59.5869 754.408 59.6134 754.393 59.6394C754.252 59.881 754.139 60.0746 754.051 60.3112C753.96 60.5582 753.892 60.864 753.89 61.3037C753.929 61.7293 754.047 62.0388 754.224 62.2756C754.406 62.5171 754.679 62.721 755.087 62.8851C755.93 63.2238 757.241 63.3524 759.16 63.3524C761.079 63.3524 762.39 63.222 763.233 62.8824C763.642 62.7178 763.915 62.5136 764.096 62.2722C764.274 62.0357 764.391 61.727 764.43 61.3037C764.428 60.864 764.361 60.5582 764.269 60.3112C764.181 60.0746 764.068 59.881 763.927 59.6394C763.912 59.6134 763.896 59.5869 763.881 59.5597C763.721 59.2856 763.543 58.9653 763.41 58.5398C763.276 58.1137 763.193 57.6025 763.193 56.9362C763.193 55.2701 761.627 53.2881 759.16 53.2881Z" fill="#56606D"/>
<path fill-rule="evenodd" clip-rule="evenodd" d="M757.138 65.5834C757.35 65.3981 757.672 65.4199 757.857 65.632C758.237 66.0659 758.696 66.258 759.131 66.2568C759.567 66.2557 760.025 66.0605 760.401 65.6316C760.586 65.4197 760.909 65.3983 761.12 65.5838C761.332 65.7694 761.354 66.0916 761.168 66.3035C760.616 66.934 759.887 67.2748 759.134 67.2768C758.38 67.2788 757.647 66.9412 757.089 66.3031C756.904 66.0909 756.926 65.7688 757.138 65.5834Z" fill="#56606D"/>
<path d="M767.32 54.8767C767.32 57.1944 765.493 59.0733 763.24 59.0733C760.987 59.0733 759.16 57.1944 759.16 54.8767C759.16 52.559 760.987 50.6802 763.24 50.6802C765.493 50.6802 767.32 52.559 767.32 54.8767Z" fill="#F64E60"/>
<path fill-rule="evenodd" clip-rule="evenodd" d="M768 54.8766C768 57.5516 765.887 59.7531 763.24 59.7531C760.593 59.7531 758.48 57.5516 758.48 54.8766C758.48 52.2015 760.593 50 763.24 50C765.887 50 768 52.2015 768 54.8766ZM763.24 59.0731C765.493 59.0731 767.32 57.1943 767.32 54.8766C767.32 52.5589 765.493 50.68 763.24 50.68C760.987 50.68 759.16 52.5589 759.16 54.8766C759.16 57.1943 760.987 59.0731 763.24 59.0731Z" fill="#F64E60"/>
<path d="M761.504 55.9114V55.2382L763.506 52.374H764.503V55.1647H765.042V55.9114H764.503V56.7804H763.646V55.9114H761.504ZM763.701 53.292L762.447 55.1647H763.701V53.292Z" fill="white"/>
<rect x="636" y="47" width="105" height="24" rx="10" fill="#FFF0E7"/>
<g clip-path="url(#clip0_301_1951)">
<path fill-rule="evenodd" clip-rule="evenodd" d="M647.734 60.8225C647.735 61.0151 647.699 61.2059 647.631 61.384C647.563 61.562 647.462 61.7238 647.336 61.86C647.209 61.9962 647.059 62.1042 646.894 62.1778C646.728 62.2514 646.551 62.2892 646.372 62.289C646.193 62.289 646.016 62.2512 645.851 62.1775C645.686 62.1038 645.536 61.9958 645.409 61.8596C645.283 61.7234 645.183 61.5617 645.114 61.3837C645.046 61.2058 645.011 61.015 645.011 60.8225C645.011 60.6298 645.046 60.4391 645.114 60.2611C645.183 60.0831 645.283 59.9214 645.41 59.7851C645.536 59.6489 645.686 59.5409 645.851 59.4673C646.017 59.3936 646.194 59.3558 646.373 59.356H647.735V60.8225H647.734ZM648.415 60.8225C648.415 60.6298 648.45 60.4391 648.519 60.2611C648.587 60.0831 648.687 59.9214 648.814 59.7851C648.94 59.6489 649.091 59.5409 649.256 59.4673C649.421 59.3936 649.598 59.3558 649.777 59.356C649.956 59.3558 650.133 59.3936 650.298 59.4673C650.464 59.5409 650.614 59.6489 650.74 59.7851C650.867 59.9214 650.967 60.0831 651.035 60.2611C651.104 60.4391 651.139 60.6298 651.139 60.8225V64.4893C651.139 64.6819 651.104 64.8727 651.035 65.0507C650.967 65.2287 650.867 65.3904 650.74 65.5266C650.614 65.6628 650.464 65.7708 650.298 65.8445C650.133 65.9181 649.956 65.9559 649.777 65.9558C649.598 65.9559 649.421 65.9181 649.256 65.8445C649.091 65.7708 648.94 65.6628 648.814 65.5266C648.687 65.3904 648.587 65.2287 648.519 65.0507C648.45 64.8727 648.415 64.6819 648.415 64.4893V60.8225Z" fill="#E01E5A"/>
<path fill-rule="evenodd" clip-rule="evenodd" d="M649.777 54.9336C649.598 54.9337 649.421 54.8959 649.256 54.8222C649.09 54.7485 648.94 54.6405 648.814 54.5042C648.687 54.3679 648.587 54.2061 648.518 54.0281C648.45 53.85 648.415 53.6592 648.415 53.4665C648.415 53.2739 648.45 53.0831 648.519 52.9051C648.587 52.7271 648.687 52.5654 648.814 52.4292C648.94 52.293 649.09 52.185 649.256 52.1113C649.421 52.0377 649.598 51.9998 649.777 52C649.956 51.9998 650.133 52.0377 650.298 52.1113C650.464 52.185 650.614 52.293 650.74 52.4292C650.867 52.5654 650.967 52.7271 651.035 52.9051C651.104 53.0831 651.139 53.2739 651.139 53.4665V54.9342H649.778L649.777 54.9336ZM649.777 55.6779C649.956 55.6778 650.133 55.7156 650.298 55.7892C650.464 55.8629 650.614 55.9709 650.74 56.1071C650.867 56.2433 650.967 56.405 651.035 56.583C651.104 56.761 651.139 56.9518 651.139 57.1444C651.139 57.337 651.104 57.5278 651.035 57.7058C650.967 57.8838 650.867 58.0455 650.74 58.1817C650.614 58.3179 650.464 58.426 650.298 58.4996C650.133 58.5732 649.956 58.6111 649.777 58.6109H646.362C646.183 58.6111 646.006 58.5733 645.841 58.4997C645.675 58.426 645.525 58.3181 645.399 58.1819C645.272 58.0458 645.172 57.8841 645.104 57.7062C645.035 57.5283 645 57.3376 645 57.145C645 56.9524 645.035 56.7616 645.103 56.5836C645.172 56.4056 645.272 56.2439 645.399 56.1077C645.525 55.9715 645.675 55.8635 645.84 55.7898C646.006 55.7162 646.183 55.6783 646.362 55.6785H649.778L649.777 55.6779Z" fill="#36C5F0"/>
<path fill-rule="evenodd" clip-rule="evenodd" d="M655.235 57.1444C655.235 56.9517 655.27 56.7609 655.338 56.5829C655.407 56.4049 655.507 56.2431 655.633 56.1069C655.76 55.9707 655.91 55.8627 656.076 55.7891C656.241 55.7155 656.418 55.6777 656.597 55.6779C656.776 55.6778 656.953 55.7156 657.118 55.7892C657.284 55.8629 657.434 55.9709 657.56 56.1071C657.687 56.2433 657.787 56.405 657.855 56.583C657.924 56.761 657.959 56.9518 657.959 57.1444C657.959 57.337 657.924 57.5278 657.855 57.7058C657.787 57.8838 657.687 58.0455 657.56 58.1817C657.434 58.3179 657.284 58.426 657.118 58.4996C656.953 58.5732 656.776 58.6111 656.597 58.6109H655.235V57.145V57.1444ZM654.554 57.1444C654.554 57.337 654.519 57.5278 654.451 57.7058C654.382 57.8838 654.282 58.0455 654.155 58.1817C654.029 58.3179 653.879 58.426 653.713 58.4996C653.548 58.5732 653.371 58.6111 653.192 58.6109C653.013 58.6111 652.836 58.5734 652.671 58.4998C652.505 58.4262 652.355 58.3182 652.229 58.1819C652.102 58.0457 652.002 57.884 651.933 57.7059C651.865 57.5279 651.83 57.3371 651.83 57.1444V53.4665C651.83 53.2738 651.865 53.083 651.933 52.905C652.002 52.7269 652.102 52.5652 652.229 52.429C652.355 52.2928 652.505 52.1848 652.671 52.1112C652.836 52.0375 653.013 51.9998 653.192 52C653.371 51.9998 653.548 52.0377 653.713 52.1113C653.879 52.185 654.029 52.293 654.155 52.4292C654.282 52.5654 654.382 52.7271 654.451 52.9051C654.519 53.0831 654.554 53.2739 654.554 53.4665V57.145V57.1444Z" fill="#2EB67D"/>
<path fill-rule="evenodd" clip-rule="evenodd" d="M653.192 63.0222C653.371 63.0221 653.548 63.0599 653.714 63.1335C653.879 63.2072 654.029 63.3152 654.156 63.4514C654.282 63.5876 654.382 63.7493 654.451 63.9273C654.519 64.1053 654.554 64.2961 654.554 64.4887C654.554 64.6814 654.519 64.8722 654.451 65.0503C654.383 65.2283 654.282 65.3901 654.156 65.5264C654.029 65.6627 653.879 65.7707 653.714 65.8444C653.548 65.9181 653.371 65.9559 653.192 65.9558C653.013 65.9559 652.836 65.9181 652.671 65.8444C652.506 65.7707 652.355 65.6627 652.229 65.5264C652.102 65.3901 652.002 65.2283 651.934 65.0503C651.865 64.8722 651.83 64.6814 651.831 64.4887V63.0222H653.192ZM653.192 62.289C653.013 62.2891 652.836 62.2513 652.671 62.1776C652.506 62.104 652.356 61.996 652.229 61.8598C652.103 61.7236 652.002 61.5618 651.934 61.3838C651.866 61.2059 651.83 61.0151 651.831 60.8225C651.83 60.6298 651.866 60.4391 651.934 60.2611C652.002 60.0831 652.103 59.9214 652.229 59.7851C652.356 59.6489 652.506 59.5409 652.671 59.4673C652.836 59.3936 653.013 59.3558 653.192 59.356H656.608C656.786 59.3558 656.964 59.3936 657.129 59.4673C657.294 59.5409 657.444 59.6489 657.571 59.7851C657.697 59.9214 657.798 60.0831 657.866 60.2611C657.934 60.4391 657.969 60.6298 657.969 60.8225C657.969 61.0151 657.934 61.2059 657.866 61.3838C657.798 61.5618 657.697 61.7236 657.571 61.8598C657.444 61.996 657.294 62.104 657.129 62.1776C656.964 62.2513 656.786 62.2891 656.608 62.289H653.192Z" fill="#ECB22E"/>
</g>
<path d="M666.429 54.3H668.937L671.5 62H669.795L669.3 60.471H666.033L665.527 62H663.811L666.429 54.3ZM668.816 58.975L667.683 55.444L666.517 58.975H668.816ZM672.618 56.94C673.183 56.3607 673.861 56.071 674.653 56.071C675.277 56.071 675.812 56.269 676.259 56.665V54.3H677.854V62H676.259V61.516C675.819 61.8973 675.284 62.088 674.653 62.088C673.869 62.088 673.19 61.791 672.618 61.197C672.054 60.603 671.771 59.899 671.771 59.085C671.771 58.2417 672.054 57.5267 672.618 56.94ZM673.256 59.085C673.256 59.5103 673.403 59.877 673.696 60.185C673.997 60.493 674.367 60.647 674.807 60.647C675.233 60.647 675.599 60.493 675.907 60.185C676.215 59.8697 676.369 59.503 676.369 59.085C676.369 58.667 676.215 58.3003 675.907 57.985C675.599 57.6697 675.233 57.512 674.807 57.512C674.367 57.512 673.997 57.6697 673.696 57.985C673.403 58.293 673.256 58.6597 673.256 59.085ZM679.687 56.94C680.251 56.3607 680.93 56.071 681.722 56.071C682.345 56.071 682.88 56.269 683.328 56.665V54.3H684.923V62H683.328V61.516C682.888 61.8973 682.352 62.088 681.722 62.088C680.937 62.088 680.259 61.791 679.687 61.197C679.122 60.603 678.84 59.899 678.84 59.085C678.84 58.2417 679.122 57.5267 679.687 56.94ZM680.325 59.085C680.325 59.5103 680.471 59.877 680.765 60.185C681.065 60.493 681.436 60.647 681.876 60.647C682.301 60.647 682.668 60.493 682.976 60.185C683.284 59.8697 683.438 59.503 683.438 59.085C683.438 58.667 683.284 58.3003 682.976 57.985C682.668 57.6697 682.301 57.512 681.876 57.512C681.436 57.512 681.065 57.6697 680.765 57.985C680.471 58.293 680.325 58.6597 680.325 59.085ZM688.882 56.17H689.872V54.894L691.445 54.443V56.17H693.128V57.545H691.445V60.042C691.445 60.196 691.508 60.3243 691.632 60.427C691.757 60.5297 691.889 60.5883 692.028 60.603C692.175 60.6103 692.263 60.614 692.292 60.614C692.542 60.614 692.846 60.5443 693.205 60.405V61.945C692.787 62.0623 692.399 62.121 692.039 62.121C691.592 62.121 691.119 61.9927 690.62 61.736C690.122 61.472 689.872 60.911 689.872 60.053V57.545H688.882V56.17ZM694.607 56.951C695.194 56.3643 695.902 56.071 696.73 56.071C697.552 56.071 698.256 56.368 698.842 56.962C699.436 57.5487 699.733 58.2527 699.733 59.074C699.733 59.9027 699.44 60.614 698.853 61.208C698.267 61.7947 697.559 62.088 696.73 62.088C695.909 62.088 695.201 61.791 694.607 61.197C694.021 60.603 693.727 59.8953 693.727 59.074C693.727 58.2527 694.021 57.545 694.607 56.951ZM695.212 59.074C695.212 59.4993 695.359 59.866 695.652 60.174C695.946 60.482 696.305 60.636 696.73 60.636C697.156 60.636 697.515 60.482 697.808 60.174C698.102 59.866 698.248 59.4993 698.248 59.074C698.248 58.6487 698.102 58.2857 697.808 57.985C697.515 57.677 697.156 57.523 696.73 57.523C696.305 57.523 695.946 57.677 695.652 57.985C695.359 58.2857 695.212 58.6487 695.212 59.074ZM704.362 54.85C704.926 54.4247 705.612 54.212 706.419 54.212C707.365 54.212 708.307 54.4833 709.246 55.026V56.709C708.798 56.4157 708.322 56.1847 707.816 56.016C707.31 55.84 706.844 55.752 706.419 55.752C706.059 55.752 705.759 55.818 705.517 55.95C705.275 56.082 705.154 56.2617 705.154 56.489C705.154 56.7237 705.293 56.9033 705.572 57.028C705.858 57.1527 706.294 57.2883 706.881 57.435L707.035 57.468C707.079 57.4827 707.123 57.4937 707.167 57.501C708.773 57.9043 709.576 58.6853 709.576 59.844C709.576 60.5627 709.282 61.1163 708.696 61.505C708.109 61.8937 707.427 62.088 706.65 62.088C706.62 62.088 706.591 62.088 706.562 62.088C705.388 62.0587 704.428 61.714 703.68 61.054V59.36C704.633 60.152 705.63 60.548 706.672 60.548C707.031 60.548 707.328 60.4893 707.563 60.372C707.805 60.2473 707.926 60.0713 707.926 59.844C707.926 59.624 707.779 59.4297 707.486 59.261C707.2 59.085 706.675 58.9017 705.913 58.711C704.307 58.315 703.504 57.578 703.504 56.5C703.504 55.8327 703.79 55.2827 704.362 54.85ZM710.404 62V54.3H711.999V62H710.404ZM713.782 56.94C714.347 56.3607 715.025 56.071 715.817 56.071C716.441 56.071 716.976 56.269 717.423 56.665V56.17H719.018V62H717.423V61.516C716.983 61.8973 716.448 62.088 715.817 62.088C715.033 62.088 714.354 61.791 713.782 61.197C713.218 60.603 712.935 59.899 712.935 59.085C712.935 58.2417 713.218 57.5267 713.782 56.94ZM714.42 59.085C714.42 59.5103 714.567 59.877 714.86 60.185C715.161 60.493 715.531 60.647 715.971 60.647C716.397 60.647 716.763 60.493 717.071 60.185C717.379 59.8697 717.533 59.503 717.533 59.085C717.533 58.667 717.379 58.3003 717.071 57.985C716.763 57.6697 716.397 57.512 715.971 57.512C715.531 57.512 715.161 57.6697 714.86 57.985C714.567 58.293 714.42 58.6597 714.42 59.085ZM720.895 56.94C721.481 56.3607 722.185 56.071 723.007 56.071C723.63 56.071 724.191 56.247 724.69 56.599C725.188 56.951 725.548 57.413 725.768 57.985L724.316 58.403C724.198 58.1317 724.022 57.9153 723.788 57.754C723.56 57.5853 723.3 57.501 723.007 57.501C722.581 57.501 722.222 57.6587 721.929 57.974C721.635 58.2893 721.489 58.6597 721.489 59.085C721.489 59.5103 721.635 59.8807 721.929 60.196C722.222 60.504 722.581 60.658 723.007 60.658C723.307 60.658 723.571 60.5773 723.799 60.416C724.026 60.2473 724.198 60.031 724.316 59.767L725.768 60.185C725.548 60.7497 725.188 61.208 724.69 61.56C724.198 61.912 723.637 62.088 723.007 62.088C722.171 62.088 721.459 61.7947 720.873 61.208C720.293 60.614 720.004 59.9063 720.004 59.085C720.004 58.2417 720.301 57.5267 720.895 56.94ZM728.21 54.3V58.546L730.377 56.17H732.269L729.783 58.843L732.335 62H730.476L728.837 59.866L728.21 60.548V62H726.615V54.3H728.21Z" fill="#524268"/>
<rect x="693" y="96" width="75" height="10" rx="5" fill="#F2F6FA"/>
<rect x="255" y="479" width="57" height="5" rx="2.5" fill="#E8EFF7"/>
<rect x="255" y="463" width="71" height="8" rx="4" fill="#E8EFF7"/>
<rect x="369" y="467" width="34" height="13" rx="6.5" fill="#F2F6FA"/>
<rect x="438" y="479" width="77" height="5" rx="2.5" fill="#E8EFF7"/>
<rect x="438" y="463" width="45" height="8" rx="4" fill="#E8EFF7"/>
<rect x="546" y="467" width="40" height="13" rx="6.5" fill="#F2F6FA"/>
<rect x="621" y="479" width="64" height="5" rx="2.5" fill="#E8EFF7"/>
<rect x="621" y="463" width="84" height="8" rx="4" fill="#E8EFF7"/>
<rect x="745" y="467" width="24" height="13" rx="6.5" fill="#F2F6FA"/>
<rect x="255" y="434" width="57" height="5" rx="2.5" fill="#E8EFF7"/>
<rect x="255" y="418" width="71" height="8" rx="4" fill="#E8EFF7"/>
<rect x="355" y="422" width="48" height="13" rx="6.5" fill="#F2F6FA"/>
<rect x="438" y="434" width="77" height="5" rx="2.5" fill="#E8EFF7"/>
<rect x="438" y="418" width="45" height="8" rx="4" fill="#E8EFF7"/>
<rect x="558" y="422" width="28" height="13" rx="6.5" fill="#F2F6FA"/>
<rect x="621" y="434" width="64" height="5" rx="2.5" fill="#E8EFF7"/>
<rect x="621" y="418" width="84" height="8" rx="4" fill="#E8EFF7"/>
<rect x="732" y="422" width="37" height="13" rx="6.5" fill="#F2F6FA"/>
<rect x="255" y="389" width="57" height="5" rx="2.5" fill="#E8EFF7"/>
<rect x="255" y="373" width="82" height="8" rx="4" fill="#E8EFF7"/>
<rect x="369" y="377" width="34" height="13" rx="6.5" fill="#F2F6FA"/>
<rect x="438" y="389" width="77" height="5" rx="2.5" fill="#E8EFF7"/>
<rect x="438" y="373" width="45" height="8" rx="4" fill="#E8EFF7"/>
<rect x="546" y="377" width="40" height="13" rx="6.5" fill="#F2F6FA"/>
<rect x="621" y="389" width="90" height="5" rx="2.5" fill="#E8EFF7"/>
<rect x="621" y="373" width="43" height="8" rx="4" fill="#E8EFF7"/>
<rect x="745" y="377" width="24" height="13" rx="6.5" fill="#F2F6FA"/>
<rect x="255" y="524" width="43" height="5" rx="2.5" fill="#E8EFF7"/>
<rect x="255" y="508" width="82" height="8" rx="4" fill="#E8EFF7"/>
<rect x="378" y="512" width="25" height="13" rx="6.5" fill="#F2F6FA"/>
<rect x="438" y="524" width="49" height="5" rx="2.5" fill="#E8EFF7"/>
<rect x="438" y="508" width="63" height="8" rx="4" fill="#E8EFF7"/>
<rect x="558" y="512" width="28" height="13" rx="6.5" fill="#F2F6FA"/>
<rect x="621" y="524" width="69" height="5" rx="2.5" fill="#E8EFF7"/>
<rect x="621" y="508" width="42" height="8" rx="4" fill="#E8EFF7"/>
<rect x="728" y="512" width="41" height="13" rx="6.5" fill="#F2F6FA"/>
<path d="M261.258 165.002C261.781 165.095 262.224 165.371 262.588 165.828C262.952 166.285 263.134 166.803 263.134 167.382C263.134 167.877 263.003 168.325 262.742 168.726C262.49 169.118 262.121 169.431 261.636 169.664C261.151 169.888 260.586 170 259.942 170H256.05V160.27H259.76C260.423 160.27 260.992 160.382 261.468 160.606C261.944 160.83 262.303 161.133 262.546 161.516C262.789 161.889 262.91 162.309 262.91 162.776C262.91 163.336 262.761 163.803 262.462 164.176C262.163 164.549 261.762 164.825 261.258 165.002ZM257.646 164.358H259.62C260.143 164.358 260.549 164.241 260.838 164.008C261.137 163.765 261.286 163.42 261.286 162.972C261.286 162.533 261.137 162.193 260.838 161.95C260.549 161.698 260.143 161.572 259.62 161.572H257.646V164.358ZM259.802 168.698C260.343 168.698 260.768 168.567 261.076 168.306C261.384 168.045 261.538 167.681 261.538 167.214C261.538 166.738 261.375 166.36 261.048 166.08C260.721 165.8 260.287 165.66 259.746 165.66H257.646V168.698H259.802ZM271.854 162.286V170H270.258V169.09C270.006 169.407 269.675 169.659 269.264 169.846C268.863 170.023 268.434 170.112 267.976 170.112C267.37 170.112 266.824 169.986 266.338 169.734C265.862 169.482 265.484 169.109 265.204 168.614C264.934 168.119 264.798 167.522 264.798 166.822V162.286H266.38V166.584C266.38 167.275 266.553 167.807 266.898 168.18C267.244 168.544 267.715 168.726 268.312 168.726C268.91 168.726 269.381 168.544 269.726 168.18C270.081 167.807 270.258 167.275 270.258 166.584V162.286H271.854ZM273.428 166.108C273.428 165.333 273.587 164.647 273.904 164.05C274.231 163.453 274.669 162.991 275.22 162.664C275.78 162.328 276.401 162.16 277.082 162.16C277.586 162.16 278.081 162.272 278.566 162.496C279.061 162.711 279.453 163 279.742 163.364V159.64H281.352V170H279.742V168.838C279.481 169.211 279.117 169.519 278.65 169.762C278.193 170.005 277.665 170.126 277.068 170.126C276.396 170.126 275.78 169.958 275.22 169.622C274.669 169.277 274.231 168.801 273.904 168.194C273.587 167.578 273.428 166.883 273.428 166.108ZM279.742 166.136C279.742 165.604 279.63 165.142 279.406 164.75C279.191 164.358 278.907 164.059 278.552 163.854C278.197 163.649 277.815 163.546 277.404 163.546C276.993 163.546 276.611 163.649 276.256 163.854C275.901 164.05 275.612 164.344 275.388 164.736C275.173 165.119 275.066 165.576 275.066 166.108C275.066 166.64 275.173 167.107 275.388 167.508C275.612 167.909 275.901 168.217 276.256 168.432C276.62 168.637 277.003 168.74 277.404 168.74C277.815 168.74 278.197 168.637 278.552 168.432C278.907 168.227 279.191 167.928 279.406 167.536C279.63 167.135 279.742 166.668 279.742 166.136ZM286.556 162.16C287.154 162.16 287.681 162.281 288.138 162.524C288.605 162.757 288.969 163.051 289.23 163.406V162.286H290.84V170.126C290.84 170.835 290.691 171.465 290.392 172.016C290.094 172.576 289.66 173.015 289.09 173.332C288.53 173.649 287.858 173.808 287.074 173.808C286.029 173.808 285.161 173.561 284.47 173.066C283.78 172.581 283.388 171.918 283.294 171.078H284.876C284.998 171.479 285.254 171.801 285.646 172.044C286.048 172.296 286.524 172.422 287.074 172.422C287.718 172.422 288.236 172.226 288.628 171.834C289.03 171.442 289.23 170.873 289.23 170.126V168.838C288.96 169.202 288.591 169.51 288.124 169.762C287.667 170.005 287.144 170.126 286.556 170.126C285.884 170.126 285.268 169.958 284.708 169.622C284.158 169.277 283.719 168.801 283.392 168.194C283.075 167.578 282.916 166.883 282.916 166.108C282.916 165.333 283.075 164.647 283.392 164.05C283.719 163.453 284.158 162.991 284.708 162.664C285.268 162.328 285.884 162.16 286.556 162.16ZM289.23 166.136C289.23 165.604 289.118 165.142 288.894 164.75C288.68 164.358 288.395 164.059 288.04 163.854C287.686 163.649 287.303 163.546 286.892 163.546C286.482 163.546 286.099 163.649 285.744 163.854C285.39 164.05 285.1 164.344 284.876 164.736C284.662 165.119 284.554 165.576 284.554 166.108C284.554 166.64 284.662 167.107 284.876 167.508C285.1 167.909 285.39 168.217 285.744 168.432C286.108 168.637 286.491 168.74 286.892 168.74C287.303 168.74 287.686 168.637 288.04 168.432C288.395 168.227 288.68 167.928 288.894 167.536C289.118 167.135 289.23 166.668 289.23 166.136ZM300.007 165.954C300.007 166.243 299.988 166.505 299.951 166.738H294.057C294.103 167.354 294.332 167.849 294.743 168.222C295.153 168.595 295.657 168.782 296.255 168.782C297.113 168.782 297.72 168.423 298.075 167.704H299.797C299.563 168.413 299.139 168.997 298.523 169.454C297.916 169.902 297.16 170.126 296.255 170.126C295.517 170.126 294.855 169.963 294.267 169.636C293.688 169.3 293.231 168.833 292.895 168.236C292.568 167.629 292.405 166.929 292.405 166.136C292.405 165.343 292.563 164.647 292.881 164.05C293.207 163.443 293.66 162.977 294.239 162.65C294.827 162.323 295.499 162.16 296.255 162.16C296.983 162.16 297.631 162.319 298.201 162.636C298.77 162.953 299.213 163.401 299.531 163.98C299.848 164.549 300.007 165.207 300.007 165.954ZM298.341 165.45C298.331 164.862 298.121 164.391 297.711 164.036C297.3 163.681 296.791 163.504 296.185 163.504C295.634 163.504 295.163 163.681 294.771 164.036C294.379 164.381 294.145 164.853 294.071 165.45H298.341ZM303.439 163.588V167.858C303.439 168.147 303.505 168.357 303.635 168.488C303.775 168.609 304.009 168.67 304.335 168.67H305.315V170H304.055C303.337 170 302.786 169.832 302.403 169.496C302.021 169.16 301.829 168.614 301.829 167.858V163.588H300.919V162.286H301.829V160.368H303.439V162.286H305.315V163.588H303.439Z" fill="#524268"/>
<line x1="255" y1="190.128" x2="477" y2="190.128" stroke="#E8EFF6"/>
<line x1="255" y1="205.58" x2="477" y2="205.58" stroke="#E8EFF6"/>
<line x1="255" y1="221.03" x2="477" y2="221.03" stroke="#E8EFF6"/>
<line x1="255" y1="236.481" x2="477" y2="236.481" stroke="#E8EFF6"/>
<line x1="255" y1="251.933" x2="477" y2="251.933" stroke="#E8EFF6"/>
<line x1="255" y1="267.383" x2="477" y2="267.383" stroke="#E8EFF6"/>
<line x1="255" y1="282.834" x2="477" y2="282.834" stroke="#E8EFF6"/>
<line x1="255" y1="298.285" x2="477" y2="298.285" stroke="#E8EFF6"/>
<line x1="255" y1="313.736" x2="477" y2="313.736" stroke="#E8EFF6"/>
<path d="M507.044 170H505.448L500.646 162.734V170H499.05V160.256H500.646L505.448 167.508V160.256H507.044V170ZM516.21 165.954C516.21 166.243 516.191 166.505 516.154 166.738H510.26C510.307 167.354 510.535 167.849 510.946 168.222C511.357 168.595 511.861 168.782 512.458 168.782C513.317 168.782 513.923 168.423 514.278 167.704H516C515.767 168.413 515.342 168.997 514.726 169.454C514.119 169.902 513.363 170.126 512.458 170.126C511.721 170.126 511.058 169.963 510.47 169.636C509.891 169.3 509.434 168.833 509.098 168.236C508.771 167.629 508.608 166.929 508.608 166.136C508.608 165.343 508.767 164.647 509.084 164.05C509.411 163.443 509.863 162.977 510.442 162.65C511.03 162.323 511.702 162.16 512.458 162.16C513.186 162.16 513.835 162.319 514.404 162.636C514.973 162.953 515.417 163.401 515.734 163.98C516.051 164.549 516.21 165.207 516.21 165.954ZM514.544 165.45C514.535 164.862 514.325 164.391 513.914 164.036C513.503 163.681 512.995 163.504 512.388 163.504C511.837 163.504 511.366 163.681 510.974 164.036C510.582 164.381 510.349 164.853 510.274 165.45H514.544ZM519.642 163.588V167.858C519.642 168.147 519.708 168.357 519.838 168.488C519.978 168.609 520.212 168.67 520.538 168.67H521.518V170H520.258C519.54 170 518.989 169.832 518.606 169.496C518.224 169.16 518.032 168.614 518.032 167.858V163.588H517.122V162.286H518.032V160.368H519.642V162.286H521.518V163.588H519.642ZM531.834 165.002C532.357 165.095 532.8 165.371 533.164 165.828C533.528 166.285 533.71 166.803 533.71 167.382C533.71 167.877 533.58 168.325 533.318 168.726C533.066 169.118 532.698 169.431 532.212 169.664C531.727 169.888 531.162 170 530.518 170H526.626V160.27H530.336C530.999 160.27 531.568 160.382 532.044 160.606C532.52 160.83 532.88 161.133 533.122 161.516C533.365 161.889 533.486 162.309 533.486 162.776C533.486 163.336 533.337 163.803 533.038 164.176C532.74 164.549 532.338 164.825 531.834 165.002ZM528.222 164.358H530.196C530.719 164.358 531.125 164.241 531.414 164.008C531.713 163.765 531.862 163.42 531.862 162.972C531.862 162.533 531.713 162.193 531.414 161.95C531.125 161.698 530.719 161.572 530.196 161.572H528.222V164.358ZM530.378 168.698C530.92 168.698 531.344 168.567 531.652 168.306C531.96 168.045 532.114 167.681 532.114 167.214C532.114 166.738 531.951 166.36 531.624 166.08C531.298 165.8 530.864 165.66 530.322 165.66H528.222V168.698H530.378ZM542.431 162.286V170H540.835V169.09C540.583 169.407 540.251 169.659 539.841 169.846C539.439 170.023 539.01 170.112 538.553 170.112C537.946 170.112 537.4 169.986 536.915 169.734C536.439 169.482 536.061 169.109 535.781 168.614C535.51 168.119 535.375 167.522 535.375 166.822V162.286H536.957V166.584C536.957 167.275 537.129 167.807 537.475 168.18C537.82 168.544 538.291 168.726 538.889 168.726C539.486 168.726 539.957 168.544 540.303 168.18C540.657 167.807 540.835 167.275 540.835 166.584V162.286H542.431ZM544.004 166.108C544.004 165.333 544.163 164.647 544.48 164.05C544.807 163.453 545.246 162.991 545.796 162.664C546.356 162.328 546.977 162.16 547.658 162.16C548.162 162.16 548.657 162.272 549.142 162.496C549.637 162.711 550.029 163 550.318 163.364V159.64H551.928V170H550.318V168.838C550.057 169.211 549.693 169.519 549.226 169.762C548.769 170.005 548.242 170.126 547.644 170.126C546.972 170.126 546.356 169.958 545.796 169.622C545.246 169.277 544.807 168.801 544.48 168.194C544.163 167.578 544.004 166.883 544.004 166.108ZM550.318 166.136C550.318 165.604 550.206 165.142 549.982 164.75C549.768 164.358 549.483 164.059 549.128 163.854C548.774 163.649 548.391 163.546 547.98 163.546C547.57 163.546 547.187 163.649 546.832 163.854C546.478 164.05 546.188 164.344 545.964 164.736C545.75 165.119 545.642 165.576 545.642 166.108C545.642 166.64 545.75 167.107 545.964 167.508C546.188 167.909 546.478 168.217 546.832 168.432C547.196 168.637 547.579 168.74 547.98 168.74C548.391 168.74 548.774 168.637 549.128 168.432C549.483 168.227 549.768 167.928 549.982 167.536C550.206 167.135 550.318 166.668 550.318 166.136ZM557.133 162.16C557.73 162.16 558.257 162.281 558.715 162.524C559.181 162.757 559.545 163.051 559.807 163.406V162.286H561.417V170.126C561.417 170.835 561.267 171.465 560.969 172.016C560.67 172.576 560.236 173.015 559.667 173.332C559.107 173.649 558.435 173.808 557.651 173.808C556.605 173.808 555.737 173.561 555.047 173.066C554.356 172.581 553.964 171.918 553.871 171.078H555.453C555.574 171.479 555.831 171.801 556.223 172.044C556.624 172.296 557.1 172.422 557.651 172.422C558.295 172.422 558.813 172.226 559.205 171.834C559.606 171.442 559.807 170.873 559.807 170.126V168.838C559.536 169.202 559.167 169.51 558.701 169.762C558.243 170.005 557.721 170.126 557.133 170.126C556.461 170.126 555.845 169.958 555.285 169.622C554.734 169.277 554.295 168.801 553.969 168.194C553.651 167.578 553.493 166.883 553.493 166.108C553.493 165.333 553.651 164.647 553.969 164.05C554.295 163.453 554.734 162.991 555.285 162.664C555.845 162.328 556.461 162.16 557.133 162.16ZM559.807 166.136C559.807 165.604 559.695 165.142 559.471 164.75C559.256 164.358 558.971 164.059 558.617 163.854C558.262 163.649 557.879 163.546 557.469 163.546C557.058 163.546 556.675 163.649 556.321 163.854C555.966 164.05 555.677 164.344 555.453 164.736C555.238 165.119 555.131 165.576 555.131 166.108C555.131 166.64 555.238 167.107 555.453 167.508C555.677 167.909 555.966 168.217 556.321 168.432C556.685 168.637 557.067 168.74 557.469 168.74C557.879 168.74 558.262 168.637 558.617 168.432C558.971 168.227 559.256 167.928 559.471 167.536C559.695 167.135 559.807 166.668 559.807 166.136ZM570.583 165.954C570.583 166.243 570.564 166.505 570.527 166.738H564.633C564.68 167.354 564.908 167.849 565.319 168.222C565.73 168.595 566.234 168.782 566.831 168.782C567.69 168.782 568.296 168.423 568.651 167.704H570.373C570.14 168.413 569.715 168.997 569.099 169.454C568.492 169.902 567.736 170.126 566.831 170.126C566.094 170.126 565.431 169.963 564.843 169.636C564.264 169.3 563.807 168.833 563.471 168.236C563.144 167.629 562.981 166.929 562.981 166.136C562.981 165.343 563.14 164.647 563.457 164.05C563.784 163.443 564.236 162.977 564.815 162.65C565.403 162.323 566.075 162.16 566.831 162.16C567.559 162.16 568.208 162.319 568.777 162.636C569.346 162.953 569.79 163.401 570.107 163.98C570.424 164.549 570.583 165.207 570.583 165.954ZM568.917 165.45C568.908 164.862 568.698 164.391 568.287 164.036C567.876 163.681 567.368 163.504 566.761 163.504C566.21 163.504 565.739 163.681 565.347 164.036C564.955 164.381 564.722 164.853 564.647 165.45H568.917ZM574.016 163.588V167.858C574.016 168.147 574.081 168.357 574.212 168.488C574.352 168.609 574.585 168.67 574.912 168.67H575.892V170H574.632C573.913 170 573.362 169.832 572.98 169.496C572.597 169.16 572.406 168.614 572.406 167.858V163.588H571.496V162.286H572.406V160.368H574.016V162.286H575.892V163.588H574.016Z" fill="#524268"/>
<line x1="496" y1="189.747" x2="768.501" y2="189.747" stroke="#E8EFF6"/>
<line x1="496" y1="205.247" x2="768.501" y2="205.247" stroke="#E8EFF6"/>
<line x1="496" y1="220.747" x2="768.501" y2="220.747" stroke="#E8EFF6"/>
<line x1="496" y1="236.247" x2="768.501" y2="236.247" stroke="#E8EFF6"/>
<line x1="496" y1="251.747" x2="768.501" y2="251.747" stroke="#E8EFF6"/>
<line x1="496" y1="267.247" x2="768.501" y2="267.247" stroke="#E8EFF6"/>
<line x1="496" y1="282.747" x2="768.501" y2="282.747" stroke="#E8EFF6"/>
<line x1="496" y1="298.247" x2="768.501" y2="298.247" stroke="#E8EFF6"/>
<line x1="496" y1="313.747" x2="768.501" y2="313.747" stroke="#E8EFF6"/>
<path d="M255 337.387C255 336.776 255.495 336.281 256.105 336.281H265.768C266.378 336.281 266.873 336.776 266.873 337.387C266.873 337.997 266.378 338.492 265.768 338.492H256.105C255.495 338.492 255 337.997 255 337.387Z" fill="#EEE9F1"/>
<path d="M273.28 339.966V334.292H275.801C276.347 334.292 276.8 334.478 277.162 334.851C277.525 335.219 277.706 335.664 277.706 336.188C277.706 336.723 277.525 337.172 277.162 337.534C276.806 337.896 276.352 338.077 275.801 338.077H274.245V339.966H273.28ZM274.245 337.21H275.736C276.055 337.21 276.306 337.11 276.49 336.91C276.679 336.704 276.773 336.456 276.773 336.164C276.773 335.872 276.679 335.632 276.49 335.443C276.306 335.254 276.055 335.159 275.736 335.159H274.245V337.21Z" fill="#79828D"/>
<path d="M278.432 335.67H279.364V336.375C279.499 336.105 279.683 335.913 279.915 335.799C280.153 335.681 280.396 335.621 280.645 335.621C280.764 335.621 280.888 335.632 281.018 335.653V336.65C280.85 336.596 280.691 336.569 280.539 336.569C280.296 336.569 280.04 336.659 279.769 336.837C279.499 337.015 279.364 337.331 279.364 337.785V339.966H278.432V335.67Z" fill="#79828D"/>
<path d="M281.975 336.245C282.407 335.813 282.926 335.597 283.531 335.597C284.071 335.597 284.541 335.772 284.941 336.124C285.346 336.469 285.595 336.904 285.687 337.429C285.719 337.558 285.735 337.688 285.735 337.818C285.735 337.931 285.722 338.045 285.695 338.158H282.242C282.296 338.477 282.442 338.731 282.68 338.92C282.923 339.109 283.207 339.204 283.531 339.204C284.028 339.204 284.425 339.025 284.722 338.669L285.549 338.888C285.376 339.233 285.098 339.512 284.714 339.722C284.336 339.928 283.941 340.03 283.531 340.03C282.909 340.03 282.385 339.814 281.958 339.382C281.537 338.95 281.326 338.428 281.326 337.818C281.326 337.202 281.542 336.677 281.975 336.245ZM282.242 337.445H284.787C284.733 337.158 284.59 336.918 284.358 336.723C284.131 336.523 283.852 336.424 283.523 336.424C283.193 336.424 282.912 336.523 282.68 336.723C282.447 336.918 282.302 337.158 282.242 337.445Z" fill="#79828D"/>
<path d="M285.986 335.67H286.983L288.166 339.431L289.35 335.67H290.347L288.936 339.966H287.404L285.986 335.67Z" fill="#79828D"/>
<path d="M291.967 335.67V339.966H291.035V335.67H291.967ZM291.083 334.17C291.202 334.057 291.345 334 291.513 334C291.68 334 291.821 334.057 291.934 334.17C292.053 334.278 292.113 334.416 292.113 334.584C292.113 334.751 292.056 334.889 291.942 334.997C291.824 335.11 291.68 335.167 291.513 335.167C291.345 335.167 291.202 335.113 291.083 335.005C290.964 334.892 290.905 334.751 290.905 334.584C290.905 334.421 290.964 334.284 291.083 334.17Z" fill="#79828D"/>
<path d="M293.388 336.245C293.82 335.813 294.342 335.597 294.952 335.597C295.563 335.597 296.082 335.816 296.509 336.253C296.941 336.686 297.157 337.204 297.157 337.81C297.157 338.42 296.941 338.944 296.509 339.382C296.076 339.814 295.558 340.03 294.952 340.03C294.342 340.03 293.82 339.814 293.388 339.382C292.956 338.944 292.74 338.42 292.74 337.81C292.74 337.199 292.956 336.677 293.388 336.245ZM293.615 337.81C293.615 338.182 293.745 338.504 294.004 338.774C294.263 339.044 294.58 339.179 294.952 339.179C295.32 339.179 295.633 339.044 295.893 338.774C296.152 338.504 296.282 338.182 296.282 337.81C296.282 337.437 296.152 337.118 295.893 336.853C295.639 336.583 295.325 336.448 294.952 336.448C294.58 336.448 294.263 336.583 294.004 336.853C293.745 337.118 293.615 337.437 293.615 337.81Z" fill="#79828D"/>
<path d="M297.808 335.67H298.74V338.045C298.74 338.385 298.84 338.658 299.04 338.863C299.246 339.069 299.497 339.171 299.794 339.171C300.135 339.171 300.41 339.05 300.621 338.806C300.837 338.558 300.945 338.247 300.945 337.874V335.67H301.877V339.966H300.945V339.398C300.615 339.825 300.17 340.038 299.608 340.038C299.116 340.038 298.692 339.882 298.335 339.568C297.984 339.25 297.808 338.828 297.808 338.304V335.67Z" fill="#79828D"/>
<path d="M302.658 336.894C302.658 336.488 302.823 336.172 303.153 335.945C303.482 335.713 303.904 335.597 304.417 335.597C305.028 335.597 305.582 335.745 306.079 336.043V336.942C305.452 336.58 304.898 336.399 304.417 336.399C304.179 336.399 303.985 336.445 303.834 336.537C303.688 336.623 303.615 336.74 303.615 336.886C303.615 336.934 303.623 336.98 303.639 337.023C303.661 337.061 303.693 337.096 303.736 337.129C303.785 337.161 303.831 337.188 303.874 337.21C303.923 337.231 303.99 337.256 304.077 337.283C304.163 337.304 304.236 337.323 304.296 337.339C304.355 337.35 304.441 337.369 304.555 337.396C304.674 337.423 304.768 337.445 304.839 337.461C305.336 337.58 305.695 337.747 305.917 337.964C306.144 338.18 306.26 338.444 306.265 338.758C306.265 339.05 306.173 339.295 305.99 339.495C305.811 339.695 305.598 339.836 305.349 339.917C305.101 339.993 304.828 340.03 304.531 340.03C303.92 340.03 303.326 339.844 302.747 339.471V338.523C302.942 338.69 303.209 338.847 303.55 338.993C303.89 339.139 304.217 339.212 304.531 339.212C304.741 339.212 304.922 339.171 305.074 339.09C305.23 339.004 305.309 338.89 305.309 338.75C305.309 338.604 305.22 338.485 305.041 338.393C304.863 338.296 304.585 338.209 304.206 338.134C303.677 338.026 303.285 337.877 303.031 337.688C302.783 337.493 302.658 337.229 302.658 336.894Z" fill="#79828D"/>
<path d="M317.758 337.387C317.758 336.776 318.253 336.281 318.863 336.281H328.526C329.136 336.281 329.631 336.776 329.631 337.387C329.631 337.997 329.136 338.492 328.526 338.492H318.863C318.253 338.492 317.758 337.997 317.758 337.387Z" fill="#FF914D"/>
<path d="M336.662 335.078C337.224 334.516 337.905 334.235 338.704 334.235C339.288 334.235 339.807 334.392 340.261 334.705C340.714 335.013 341.055 335.429 341.282 335.953L340.358 336.204C340.207 335.88 339.985 335.624 339.693 335.434C339.401 335.245 339.072 335.151 338.704 335.151C338.159 335.151 337.702 335.343 337.335 335.726C336.967 336.11 336.783 336.58 336.783 337.137C336.783 337.688 336.964 338.155 337.326 338.539C337.694 338.917 338.153 339.106 338.704 339.106C339.137 339.106 339.515 338.979 339.839 338.725C340.163 338.471 340.379 338.123 340.488 337.68L338.721 337.688L338.704 336.861H341.428V337.218C341.428 338.023 341.168 338.693 340.65 339.228C340.136 339.763 339.488 340.03 338.704 340.03C337.905 340.03 337.224 339.747 336.662 339.179C336.1 338.612 335.819 337.931 335.819 337.137C335.819 336.331 336.1 335.645 336.662 335.078Z" fill="#79828D"/>
<path d="M342.61 336.245C343.043 335.813 343.564 335.597 344.175 335.597C344.785 335.597 345.304 335.815 345.731 336.253C346.163 336.685 346.379 337.204 346.379 337.809C346.379 338.42 346.163 338.944 345.731 339.382C345.299 339.814 344.78 340.03 344.175 340.03C343.564 340.03 343.043 339.814 342.61 339.382C342.178 338.944 341.962 338.42 341.962 337.809C341.962 337.199 342.178 336.677 342.61 336.245ZM342.837 337.809C342.837 338.182 342.967 338.504 343.226 338.774C343.486 339.044 343.802 339.179 344.175 339.179C344.542 339.179 344.856 339.044 345.115 338.774C345.374 338.504 345.504 338.182 345.504 337.809C345.504 337.436 345.374 337.118 345.115 336.853C344.861 336.583 344.548 336.448 344.175 336.448C343.802 336.448 343.486 336.583 343.226 336.853C342.967 337.118 342.837 337.436 342.837 337.809Z" fill="#79828D"/>
<path d="M347.518 336.245C347.934 335.813 348.439 335.597 349.034 335.597C349.612 335.597 350.071 335.813 350.412 336.245V335.67H351.344V339.965H350.412V339.39C350.071 339.817 349.612 340.03 349.034 340.03C348.445 340.03 347.939 339.814 347.518 339.382C347.102 338.944 346.894 338.423 346.894 337.817C346.894 337.201 347.102 336.677 347.518 336.245ZM347.761 337.817C347.761 338.196 347.891 338.52 348.15 338.79C348.415 339.055 348.736 339.187 349.115 339.187C349.488 339.187 349.806 339.052 350.071 338.782C350.341 338.512 350.476 338.19 350.476 337.817C350.476 337.445 350.341 337.123 350.071 336.853C349.806 336.577 349.488 336.44 349.115 336.44C348.736 336.44 348.415 336.575 348.15 336.845C347.891 337.115 347.761 337.439 347.761 337.817Z" fill="#79828D"/>
<path d="M352.248 339.965V334.292H353.18V339.965H352.248Z" fill="#79828D"/>
<path d="M365.042 337.387C365.042 336.776 365.537 336.281 366.147 336.281H375.81C376.42 336.281 376.915 336.776 376.915 337.387C376.915 337.997 376.42 338.492 375.81 338.492H366.147C365.537 338.492 365.042 337.997 365.042 337.387Z" fill="#16C784"/>
<path d="M383.978 335.07C384.54 334.502 385.221 334.219 386.021 334.219C386.599 334.219 387.115 334.378 387.569 334.697C388.028 335.016 388.374 335.437 388.606 335.961L387.682 336.221C387.526 335.891 387.301 335.629 387.01 335.435C386.723 335.235 386.394 335.135 386.021 335.135C385.47 335.135 385.01 335.326 384.643 335.71C384.281 336.088 384.1 336.558 384.1 337.12C384.1 337.672 384.281 338.139 384.643 338.523C385.01 338.901 385.47 339.09 386.021 339.09C386.399 339.09 386.729 338.998 387.01 338.814C387.296 338.625 387.515 338.366 387.666 338.036L388.598 338.288C388.371 338.806 388.028 339.225 387.569 339.544C387.115 339.857 386.599 340.014 386.021 340.014C385.221 340.014 384.54 339.733 383.978 339.171C383.416 338.604 383.135 337.92 383.135 337.12C383.135 336.321 383.416 335.637 383.978 335.07Z" fill="#79828D"/>
<path d="M389.241 335.67H390.173V338.044C390.173 338.385 390.273 338.658 390.473 338.863C390.678 339.068 390.929 339.171 391.227 339.171C391.567 339.171 391.843 339.05 392.053 338.806C392.27 338.558 392.378 338.247 392.378 337.874V335.67H393.31V339.965H392.378V339.398C392.048 339.825 391.602 340.038 391.04 340.038C390.549 340.038 390.124 339.882 389.768 339.568C389.416 339.249 389.241 338.828 389.241 338.304V335.67Z" fill="#79828D"/>
<path d="M394.204 335.67H395.136V336.375C395.272 336.105 395.455 335.913 395.688 335.799C395.925 335.68 396.169 335.621 396.417 335.621C396.536 335.621 396.66 335.632 396.79 335.653V336.65C396.622 336.596 396.463 336.569 396.312 336.569C396.069 336.569 395.812 336.658 395.542 336.837C395.272 337.015 395.136 337.331 395.136 337.785V339.965H394.204V335.67Z" fill="#79828D"/>
<path d="M397.45 335.67H398.382V336.375C398.517 336.105 398.701 335.913 398.933 335.799C399.171 335.68 399.414 335.621 399.662 335.621C399.781 335.621 399.906 335.632 400.035 335.653V336.65C399.868 336.596 399.708 336.569 399.557 336.569C399.314 336.569 399.057 336.658 398.787 336.837C398.517 337.015 398.382 337.331 398.382 337.785V339.965H397.45V335.67Z" fill="#79828D"/>
<path d="M400.992 336.245C401.425 335.813 401.943 335.597 402.549 335.597C403.089 335.597 403.559 335.772 403.959 336.124C404.364 336.469 404.613 336.904 404.705 337.428C404.737 337.558 404.753 337.688 404.753 337.818C404.753 337.931 404.74 338.044 404.713 338.158H401.26C401.314 338.477 401.46 338.731 401.697 338.92C401.941 339.109 402.224 339.204 402.549 339.204C403.046 339.204 403.443 339.025 403.74 338.669L404.567 338.887C404.394 339.233 404.116 339.512 403.732 339.722C403.354 339.928 402.959 340.03 402.549 340.03C401.927 340.03 401.403 339.814 400.976 339.382C400.555 338.95 400.344 338.428 400.344 337.818C400.344 337.202 400.56 336.677 400.992 336.245ZM401.26 337.445H403.805C403.751 337.158 403.608 336.918 403.375 336.723C403.148 336.523 402.87 336.423 402.54 336.423C402.211 336.423 401.93 336.523 401.697 336.723C401.465 336.918 401.319 337.158 401.26 337.445Z" fill="#79828D"/>
<path d="M405.397 335.67H406.329V336.237C406.658 335.81 407.104 335.597 407.666 335.597C408.158 335.597 408.579 335.756 408.931 336.075C409.287 336.388 409.466 336.807 409.466 337.331V339.965H408.533V337.582C408.533 337.242 408.431 336.972 408.225 336.772C408.026 336.567 407.777 336.464 407.48 336.464C407.139 336.464 406.861 336.588 406.645 336.837C406.434 337.08 406.329 337.385 406.329 337.753V339.965H405.397V335.67Z" fill="#79828D"/>
<path d="M409.92 336.48V335.67H410.73V334.64L411.646 334.373V335.67H412.967V336.48H411.646V338.571C411.646 338.836 411.722 339.001 411.873 339.066C412.03 339.131 412.17 339.163 412.295 339.163C412.489 339.163 412.724 339.12 413 339.033V339.933C412.708 340.014 412.441 340.055 412.197 340.055C411.879 340.055 411.554 339.963 411.225 339.779C410.895 339.59 410.73 339.19 410.73 338.579V336.48H409.92Z" fill="#79828D"/>
<path d="M433 337.387C433 336.776 433.495 336.281 434.105 336.281H443.768C444.378 336.281 444.873 336.776 444.873 337.387C444.873 337.997 444.378 338.492 443.768 338.492H434.105C433.495 338.492 433 337.997 433 337.387Z" fill="#EEE9F1"/>
<path d="M451.28 339.966V334.292H453.801C454.347 334.292 454.8 334.478 455.162 334.851C455.525 335.219 455.706 335.664 455.706 336.188C455.706 336.723 455.525 337.172 455.162 337.534C454.806 337.896 454.352 338.077 453.801 338.077H452.245V339.966H451.28ZM452.245 337.21H453.736C454.055 337.21 454.306 337.11 454.49 336.91C454.679 336.704 454.773 336.456 454.773 336.164C454.773 335.872 454.679 335.632 454.49 335.443C454.306 335.254 454.055 335.159 453.736 335.159H452.245V337.21Z" fill="#79828D"/>
<path d="M456.432 335.67H457.364V336.375C457.499 336.105 457.683 335.913 457.915 335.799C458.153 335.681 458.396 335.621 458.645 335.621C458.764 335.621 458.888 335.632 459.018 335.653V336.65C458.85 336.596 458.691 336.569 458.539 336.569C458.296 336.569 458.04 336.659 457.769 336.837C457.499 337.015 457.364 337.331 457.364 337.785V339.966H456.432V335.67Z" fill="#79828D"/>
<path d="M459.975 336.245C460.407 335.813 460.926 335.597 461.531 335.597C462.071 335.597 462.541 335.772 462.941 336.124C463.346 336.469 463.595 336.904 463.687 337.429C463.719 337.558 463.735 337.688 463.735 337.818C463.735 337.931 463.722 338.045 463.695 338.158H460.242C460.296 338.477 460.442 338.731 460.68 338.92C460.923 339.109 461.207 339.204 461.531 339.204C462.028 339.204 462.425 339.025 462.722 338.669L463.549 338.888C463.376 339.233 463.098 339.512 462.714 339.722C462.336 339.928 461.941 340.03 461.531 340.03C460.909 340.03 460.385 339.814 459.958 339.382C459.537 338.95 459.326 338.428 459.326 337.818C459.326 337.202 459.542 336.677 459.975 336.245ZM460.242 337.445H462.787C462.733 337.158 462.59 336.918 462.358 336.723C462.131 336.523 461.852 336.424 461.523 336.424C461.193 336.424 460.912 336.523 460.68 336.723C460.447 336.918 460.302 337.158 460.242 337.445Z" fill="#79828D"/>
<path d="M463.986 335.67H464.983L466.166 339.431L467.35 335.67H468.347L466.936 339.966H465.404L463.986 335.67Z" fill="#79828D"/>
<path d="M469.967 335.67V339.966H469.035V335.67H469.967ZM469.083 334.17C469.202 334.057 469.345 334 469.513 334C469.68 334 469.821 334.057 469.934 334.17C470.053 334.278 470.113 334.416 470.113 334.584C470.113 334.751 470.056 334.889 469.942 334.997C469.824 335.11 469.68 335.167 469.513 335.167C469.345 335.167 469.202 335.113 469.083 335.005C468.964 334.892 468.905 334.751 468.905 334.584C468.905 334.421 468.964 334.284 469.083 334.17Z" fill="#79828D"/>
<path d="M471.388 336.245C471.82 335.813 472.342 335.597 472.952 335.597C473.563 335.597 474.082 335.816 474.509 336.253C474.941 336.686 475.157 337.204 475.157 337.81C475.157 338.42 474.941 338.944 474.509 339.382C474.076 339.814 473.558 340.03 472.952 340.03C472.342 340.03 471.82 339.814 471.388 339.382C470.956 338.944 470.74 338.42 470.74 337.81C470.74 337.199 470.956 336.677 471.388 336.245ZM471.615 337.81C471.615 338.182 471.745 338.504 472.004 338.774C472.263 339.044 472.58 339.179 472.952 339.179C473.32 339.179 473.633 339.044 473.893 338.774C474.152 338.504 474.282 338.182 474.282 337.81C474.282 337.437 474.152 337.118 473.893 336.853C473.639 336.583 473.325 336.448 472.952 336.448C472.58 336.448 472.263 336.583 472.004 336.853C471.745 337.118 471.615 337.437 471.615 337.81Z" fill="#79828D"/>
<path d="M475.808 335.67H476.74V338.045C476.74 338.385 476.84 338.658 477.04 338.863C477.246 339.069 477.497 339.171 477.794 339.171C478.135 339.171 478.41 339.05 478.621 338.806C478.837 338.558 478.945 338.247 478.945 337.874V335.67H479.877V339.966H478.945V339.398C478.615 339.825 478.17 340.038 477.608 340.038C477.116 340.038 476.692 339.882 476.335 339.568C475.984 339.25 475.808 338.828 475.808 338.304V335.67Z" fill="#79828D"/>
<path d="M480.658 336.894C480.658 336.488 480.823 336.172 481.153 335.945C481.482 335.713 481.904 335.597 482.417 335.597C483.028 335.597 483.582 335.745 484.079 336.043V336.942C483.452 336.58 482.898 336.399 482.417 336.399C482.179 336.399 481.985 336.445 481.834 336.537C481.688 336.623 481.615 336.74 481.615 336.886C481.615 336.934 481.623 336.98 481.639 337.023C481.661 337.061 481.693 337.096 481.736 337.129C481.785 337.161 481.831 337.188 481.874 337.21C481.923 337.231 481.99 337.256 482.077 337.283C482.163 337.304 482.236 337.323 482.296 337.339C482.355 337.35 482.441 337.369 482.555 337.396C482.674 337.423 482.768 337.445 482.839 337.461C483.336 337.58 483.695 337.747 483.917 337.964C484.144 338.18 484.26 338.444 484.265 338.758C484.265 339.05 484.173 339.295 483.99 339.495C483.811 339.695 483.598 339.836 483.349 339.917C483.101 339.993 482.828 340.03 482.531 340.03C481.92 340.03 481.326 339.844 480.747 339.471V338.523C480.942 338.69 481.209 338.847 481.55 338.993C481.89 339.139 482.217 339.212 482.531 339.212C482.741 339.212 482.922 339.171 483.074 339.09C483.23 339.004 483.309 338.89 483.309 338.75C483.309 338.604 483.22 338.485 483.041 338.393C482.863 338.296 482.585 338.209 482.206 338.134C481.677 338.026 481.285 337.877 481.031 337.688C480.783 337.493 480.658 337.229 480.658 336.894Z" fill="#79828D"/>
<path d="M495.758 337.387C495.758 336.776 496.253 336.281 496.863 336.281H506.526C507.136 336.281 507.631 336.776 507.631 337.387C507.631 337.997 507.136 338.492 506.526 338.492H496.863C496.253 338.492 495.758 337.997 495.758 337.387Z" fill="#FF914D"/>
<path d="M514.662 335.078C515.224 334.516 515.905 334.235 516.704 334.235C517.288 334.235 517.807 334.392 518.261 334.705C518.714 335.013 519.055 335.429 519.282 335.953L518.358 336.204C518.207 335.88 517.985 335.624 517.693 335.434C517.401 335.245 517.072 335.151 516.704 335.151C516.159 335.151 515.702 335.343 515.335 335.726C514.967 336.11 514.783 336.58 514.783 337.137C514.783 337.688 514.964 338.155 515.326 338.539C515.694 338.917 516.153 339.106 516.704 339.106C517.137 339.106 517.515 338.979 517.839 338.725C518.163 338.471 518.379 338.123 518.488 337.68L516.721 337.688L516.704 336.861H519.428V337.218C519.428 338.023 519.168 338.693 518.65 339.228C518.136 339.763 517.488 340.03 516.704 340.03C515.905 340.03 515.224 339.747 514.662 339.179C514.1 338.612 513.819 337.931 513.819 337.137C513.819 336.331 514.1 335.645 514.662 335.078Z" fill="#79828D"/>
<path d="M520.61 336.245C521.043 335.813 521.564 335.597 522.175 335.597C522.785 335.597 523.304 335.815 523.731 336.253C524.163 336.685 524.379 337.204 524.379 337.809C524.379 338.42 524.163 338.944 523.731 339.382C523.299 339.814 522.78 340.03 522.175 340.03C521.564 340.03 521.043 339.814 520.61 339.382C520.178 338.944 519.962 338.42 519.962 337.809C519.962 337.199 520.178 336.677 520.61 336.245ZM520.837 337.809C520.837 338.182 520.967 338.504 521.226 338.774C521.486 339.044 521.802 339.179 522.175 339.179C522.542 339.179 522.856 339.044 523.115 338.774C523.374 338.504 523.504 338.182 523.504 337.809C523.504 337.436 523.374 337.118 523.115 336.853C522.861 336.583 522.548 336.448 522.175 336.448C521.802 336.448 521.486 336.583 521.226 336.853C520.967 337.118 520.837 337.436 520.837 337.809Z" fill="#79828D"/>
<path d="M525.518 336.245C525.934 335.813 526.439 335.597 527.034 335.597C527.612 335.597 528.071 335.813 528.412 336.245V335.67H529.344V339.965H528.412V339.39C528.071 339.817 527.612 340.03 527.034 340.03C526.445 340.03 525.939 339.814 525.518 339.382C525.102 338.944 524.894 338.423 524.894 337.817C524.894 337.201 525.102 336.677 525.518 336.245ZM525.761 337.817C525.761 338.196 525.891 338.52 526.15 338.79C526.415 339.055 526.736 339.187 527.115 339.187C527.488 339.187 527.806 339.052 528.071 338.782C528.341 338.512 528.476 338.19 528.476 337.817C528.476 337.445 528.341 337.123 528.071 336.853C527.806 336.577 527.488 336.44 527.115 336.44C526.736 336.44 526.415 336.575 526.15 336.845C525.891 337.115 525.761 337.439 525.761 337.817Z" fill="#79828D"/>
<path d="M530.248 339.965V334.292H531.18V339.965H530.248Z" fill="#79828D"/>
<path d="M543.042 337.387C543.042 336.776 543.537 336.281 544.147 336.281H553.81C554.42 336.281 554.915 336.776 554.915 337.387C554.915 337.997 554.42 338.492 553.81 338.492H544.147C543.537 338.492 543.042 337.997 543.042 337.387Z" fill="#16C784"/>
<path d="M561.978 335.07C562.54 334.502 563.221 334.219 564.021 334.219C564.599 334.219 565.115 334.378 565.569 334.697C566.028 335.016 566.374 335.437 566.606 335.961L565.682 336.221C565.526 335.891 565.301 335.629 565.01 335.435C564.723 335.235 564.394 335.135 564.021 335.135C563.47 335.135 563.01 335.326 562.643 335.71C562.281 336.088 562.1 336.558 562.1 337.12C562.1 337.672 562.281 338.139 562.643 338.523C563.01 338.901 563.47 339.09 564.021 339.09C564.399 339.09 564.729 338.998 565.01 338.814C565.296 338.625 565.515 338.366 565.666 338.036L566.598 338.288C566.371 338.806 566.028 339.225 565.569 339.544C565.115 339.857 564.599 340.014 564.021 340.014C563.221 340.014 562.54 339.733 561.978 339.171C561.416 338.604 561.135 337.92 561.135 337.12C561.135 336.321 561.416 335.637 561.978 335.07Z" fill="#79828D"/>
<path d="M567.241 335.67H568.173V338.044C568.173 338.385 568.273 338.658 568.473 338.863C568.678 339.068 568.929 339.171 569.227 339.171C569.567 339.171 569.843 339.05 570.053 338.806C570.27 338.558 570.378 338.247 570.378 337.874V335.67H571.31V339.965H570.378V339.398C570.048 339.825 569.602 340.038 569.04 340.038C568.549 340.038 568.124 339.882 567.768 339.568C567.416 339.249 567.241 338.828 567.241 338.304V335.67Z" fill="#79828D"/>
<path d="M572.204 335.67H573.136V336.375C573.272 336.105 573.455 335.913 573.688 335.799C573.925 335.68 574.169 335.621 574.417 335.621C574.536 335.621 574.66 335.632 574.79 335.653V336.65C574.622 336.596 574.463 336.569 574.312 336.569C574.069 336.569 573.812 336.658 573.542 336.837C573.272 337.015 573.136 337.331 573.136 337.785V339.965H572.204V335.67Z" fill="#79828D"/>
<path d="M575.45 335.67H576.382V336.375C576.517 336.105 576.701 335.913 576.933 335.799C577.171 335.68 577.414 335.621 577.662 335.621C577.781 335.621 577.906 335.632 578.035 335.653V336.65C577.868 336.596 577.708 336.569 577.557 336.569C577.314 336.569 577.057 336.658 576.787 336.837C576.517 337.015 576.382 337.331 576.382 337.785V339.965H575.45V335.67Z" fill="#79828D"/>
<path d="M578.992 336.245C579.425 335.813 579.943 335.597 580.549 335.597C581.089 335.597 581.559 335.772 581.959 336.124C582.364 336.469 582.613 336.904 582.705 337.428C582.737 337.558 582.753 337.688 582.753 337.818C582.753 337.931 582.74 338.044 582.713 338.158H579.26C579.314 338.477 579.46 338.731 579.697 338.92C579.941 339.109 580.224 339.204 580.549 339.204C581.046 339.204 581.443 339.025 581.74 338.669L582.567 338.887C582.394 339.233 582.116 339.512 581.732 339.722C581.354 339.928 580.959 340.03 580.549 340.03C579.927 340.03 579.403 339.814 578.976 339.382C578.555 338.95 578.344 338.428 578.344 337.818C578.344 337.202 578.56 336.677 578.992 336.245ZM579.26 337.445H581.805C581.751 337.158 581.608 336.918 581.375 336.723C581.148 336.523 580.87 336.423 580.54 336.423C580.211 336.423 579.93 336.523 579.697 336.723C579.465 336.918 579.319 337.158 579.26 337.445Z" fill="#79828D"/>
<path d="M583.397 335.67H584.329V336.237C584.658 335.81 585.104 335.597 585.666 335.597C586.158 335.597 586.579 335.756 586.931 336.075C587.287 336.388 587.466 336.807 587.466 337.331V339.965H586.533V337.582C586.533 337.242 586.431 336.972 586.225 336.772C586.026 336.567 585.777 336.464 585.48 336.464C585.139 336.464 584.861 336.588 584.645 336.837C584.434 337.08 584.329 337.385 584.329 337.753V339.965H583.397V335.67Z" fill="#79828D"/>
<path d="M587.92 336.48V335.67H588.73V334.64L589.646 334.373V335.67H590.967V336.48H589.646V338.571C589.646 338.836 589.722 339.001 589.873 339.066C590.03 339.131 590.17 339.163 590.295 339.163C590.489 339.163 590.724 339.12 591 339.033V339.933C590.708 340.014 590.441 340.055 590.197 340.055C589.879 340.055 589.554 339.963 589.225 339.779C588.895 339.59 588.73 339.19 588.73 338.579V336.48H587.92Z" fill="#79828D"/>
<path d="M610 337.387C610 336.776 610.495 336.281 611.105 336.281H620.768C621.378 336.281 621.873 336.776 621.873 337.387C621.873 337.997 621.378 338.492 620.768 338.492H611.105C610.495 338.492 610 337.997 610 337.387Z" fill="#EEE9F1"/>
<path d="M628.28 339.966V334.292H630.801C631.347 334.292 631.8 334.478 632.162 334.851C632.525 335.219 632.706 335.664 632.706 336.188C632.706 336.723 632.525 337.172 632.162 337.534C631.806 337.896 631.352 338.077 630.801 338.077H629.245V339.966H628.28ZM629.245 337.21H630.736C631.055 337.21 631.306 337.11 631.49 336.91C631.679 336.704 631.773 336.456 631.773 336.164C631.773 335.872 631.679 335.632 631.49 335.443C631.306 335.254 631.055 335.159 630.736 335.159H629.245V337.21Z" fill="#79828D"/>
<path d="M633.432 335.67H634.364V336.375C634.499 336.105 634.683 335.913 634.915 335.799C635.153 335.681 635.396 335.621 635.645 335.621C635.764 335.621 635.888 335.632 636.018 335.653V336.65C635.85 336.596 635.691 336.569 635.539 336.569C635.296 336.569 635.04 336.659 634.769 336.837C634.499 337.015 634.364 337.331 634.364 337.785V339.966H633.432V335.67Z" fill="#79828D"/>
<path d="M636.975 336.245C637.407 335.813 637.926 335.597 638.531 335.597C639.071 335.597 639.541 335.772 639.941 336.124C640.346 336.469 640.595 336.904 640.687 337.429C640.719 337.558 640.735 337.688 640.735 337.818C640.735 337.931 640.722 338.045 640.695 338.158H637.242C637.296 338.477 637.442 338.731 637.68 338.92C637.923 339.109 638.207 339.204 638.531 339.204C639.028 339.204 639.425 339.025 639.722 338.669L640.549 338.888C640.376 339.233 640.098 339.512 639.714 339.722C639.336 339.928 638.941 340.03 638.531 340.03C637.909 340.03 637.385 339.814 636.958 339.382C636.537 338.95 636.326 338.428 636.326 337.818C636.326 337.202 636.542 336.677 636.975 336.245ZM637.242 337.445H639.787C639.733 337.158 639.59 336.918 639.358 336.723C639.131 336.523 638.852 336.424 638.523 336.424C638.193 336.424 637.912 336.523 637.68 336.723C637.447 336.918 637.302 337.158 637.242 337.445Z" fill="#79828D"/>
<path d="M640.986 335.67H641.983L643.166 339.431L644.35 335.67H645.347L643.936 339.966H642.404L640.986 335.67Z" fill="#79828D"/>
<path d="M646.967 335.67V339.966H646.035V335.67H646.967ZM646.083 334.17C646.202 334.057 646.345 334 646.513 334C646.68 334 646.821 334.057 646.934 334.17C647.053 334.278 647.113 334.416 647.113 334.584C647.113 334.751 647.056 334.889 646.942 334.997C646.824 335.11 646.68 335.167 646.513 335.167C646.345 335.167 646.202 335.113 646.083 335.005C645.964 334.892 645.905 334.751 645.905 334.584C645.905 334.421 645.964 334.284 646.083 334.17Z" fill="#79828D"/>
<path d="M648.388 336.245C648.82 335.813 649.342 335.597 649.952 335.597C650.563 335.597 651.082 335.816 651.509 336.253C651.941 336.686 652.157 337.204 652.157 337.81C652.157 338.42 651.941 338.944 651.509 339.382C651.076 339.814 650.558 340.03 649.952 340.03C649.342 340.03 648.82 339.814 648.388 339.382C647.956 338.944 647.74 338.42 647.74 337.81C647.74 337.199 647.956 336.677 648.388 336.245ZM648.615 337.81C648.615 338.182 648.745 338.504 649.004 338.774C649.263 339.044 649.58 339.179 649.952 339.179C650.32 339.179 650.633 339.044 650.893 338.774C651.152 338.504 651.282 338.182 651.282 337.81C651.282 337.437 651.152 337.118 650.893 336.853C650.639 336.583 650.325 336.448 649.952 336.448C649.58 336.448 649.263 336.583 649.004 336.853C648.745 337.118 648.615 337.437 648.615 337.81Z" fill="#79828D"/>
<path d="M652.808 335.67H653.74V338.045C653.74 338.385 653.84 338.658 654.04 338.863C654.246 339.069 654.497 339.171 654.794 339.171C655.135 339.171 655.41 339.05 655.621 338.806C655.837 338.558 655.945 338.247 655.945 337.874V335.67H656.877V339.966H655.945V339.398C655.615 339.825 655.17 340.038 654.608 340.038C654.116 340.038 653.692 339.882 653.335 339.568C652.984 339.25 652.808 338.828 652.808 338.304V335.67Z" fill="#79828D"/>
<path d="M657.658 336.894C657.658 336.488 657.823 336.172 658.153 335.945C658.482 335.713 658.904 335.597 659.417 335.597C660.028 335.597 660.582 335.745 661.079 336.043V336.942C660.452 336.58 659.898 336.399 659.417 336.399C659.179 336.399 658.985 336.445 658.834 336.537C658.688 336.623 658.615 336.74 658.615 336.886C658.615 336.934 658.623 336.98 658.639 337.023C658.661 337.061 658.693 337.096 658.736 337.129C658.785 337.161 658.831 337.188 658.874 337.21C658.923 337.231 658.99 337.256 659.077 337.283C659.163 337.304 659.236 337.323 659.296 337.339C659.355 337.35 659.441 337.369 659.555 337.396C659.674 337.423 659.768 337.445 659.839 337.461C660.336 337.58 660.695 337.747 660.917 337.964C661.144 338.18 661.26 338.444 661.265 338.758C661.265 339.05 661.173 339.295 660.99 339.495C660.811 339.695 660.598 339.836 660.349 339.917C660.101 339.993 659.828 340.03 659.531 340.03C658.92 340.03 658.326 339.844 657.747 339.471V338.523C657.942 338.69 658.209 338.847 658.55 338.993C658.89 339.139 659.217 339.212 659.531 339.212C659.741 339.212 659.922 339.171 660.074 339.09C660.23 339.004 660.309 338.89 660.309 338.75C660.309 338.604 660.22 338.485 660.041 338.393C659.863 338.296 659.585 338.209 659.206 338.134C658.677 338.026 658.285 337.877 658.031 337.688C657.783 337.493 657.658 337.229 657.658 336.894Z" fill="#79828D"/>
<path d="M672.758 337.387C672.758 336.776 673.253 336.281 673.863 336.281H683.526C684.136 336.281 684.631 336.776 684.631 337.387C684.631 337.997 684.136 338.492 683.526 338.492H673.863C673.253 338.492 672.758 337.997 672.758 337.387Z" fill="#FF914D"/>
<path d="M691.662 335.078C692.224 334.516 692.905 334.235 693.704 334.235C694.288 334.235 694.807 334.392 695.261 334.705C695.714 335.013 696.055 335.429 696.282 335.953L695.358 336.204C695.207 335.88 694.985 335.624 694.693 335.434C694.401 335.245 694.072 335.151 693.704 335.151C693.159 335.151 692.702 335.343 692.335 335.726C691.967 336.11 691.783 336.58 691.783 337.137C691.783 337.688 691.964 338.155 692.326 338.539C692.694 338.917 693.153 339.106 693.704 339.106C694.137 339.106 694.515 338.979 694.839 338.725C695.163 338.471 695.379 338.123 695.488 337.68L693.721 337.688L693.704 336.861H696.428V337.218C696.428 338.023 696.168 338.693 695.65 339.228C695.136 339.763 694.488 340.03 693.704 340.03C692.905 340.03 692.224 339.747 691.662 339.179C691.1 338.612 690.819 337.931 690.819 337.137C690.819 336.331 691.1 335.645 691.662 335.078Z" fill="#79828D"/>
<path d="M697.61 336.245C698.043 335.813 698.564 335.597 699.175 335.597C699.785 335.597 700.304 335.815 700.731 336.253C701.163 336.685 701.379 337.204 701.379 337.809C701.379 338.42 701.163 338.944 700.731 339.382C700.299 339.814 699.78 340.03 699.175 340.03C698.564 340.03 698.043 339.814 697.61 339.382C697.178 338.944 696.962 338.42 696.962 337.809C696.962 337.199 697.178 336.677 697.61 336.245ZM697.837 337.809C697.837 338.182 697.967 338.504 698.226 338.774C698.486 339.044 698.802 339.179 699.175 339.179C699.542 339.179 699.856 339.044 700.115 338.774C700.374 338.504 700.504 338.182 700.504 337.809C700.504 337.436 700.374 337.118 700.115 336.853C699.861 336.583 699.548 336.448 699.175 336.448C698.802 336.448 698.486 336.583 698.226 336.853C697.967 337.118 697.837 337.436 697.837 337.809Z" fill="#79828D"/>
<path d="M702.518 336.245C702.934 335.813 703.439 335.597 704.034 335.597C704.612 335.597 705.071 335.813 705.412 336.245V335.67H706.344V339.965H705.412V339.39C705.071 339.817 704.612 340.03 704.034 340.03C703.445 340.03 702.939 339.814 702.518 339.382C702.102 338.944 701.894 338.423 701.894 337.817C701.894 337.201 702.102 336.677 702.518 336.245ZM702.761 337.817C702.761 338.196 702.891 338.52 703.15 338.79C703.415 339.055 703.736 339.187 704.115 339.187C704.488 339.187 704.806 339.052 705.071 338.782C705.341 338.512 705.476 338.19 705.476 337.817C705.476 337.445 705.341 337.123 705.071 336.853C704.806 336.577 704.488 336.44 704.115 336.44C703.736 336.44 703.415 336.575 703.15 336.845C702.891 337.115 702.761 337.439 702.761 337.817Z" fill="#79828D"/>
<path d="M707.248 339.965V334.292H708.18V339.965H707.248Z" fill="#79828D"/>
<path d="M720.042 337.387C720.042 336.776 720.537 336.281 721.147 336.281H730.81C731.42 336.281 731.915 336.776 731.915 337.387C731.915 337.997 731.42 338.492 730.81 338.492H721.147C720.537 338.492 720.042 337.997 720.042 337.387Z" fill="#16C784"/>
<path d="M738.978 335.07C739.54 334.502 740.221 334.219 741.021 334.219C741.599 334.219 742.115 334.378 742.569 334.697C743.028 335.016 743.374 335.437 743.606 335.961L742.682 336.221C742.526 335.891 742.301 335.629 742.01 335.435C741.723 335.235 741.394 335.135 741.021 335.135C740.47 335.135 740.01 335.326 739.643 335.71C739.281 336.088 739.1 336.558 739.1 337.12C739.1 337.672 739.281 338.139 739.643 338.523C740.01 338.901 740.47 339.09 741.021 339.09C741.399 339.09 741.729 338.998 742.01 338.814C742.296 338.625 742.515 338.366 742.666 338.036L743.598 338.288C743.371 338.806 743.028 339.225 742.569 339.544C742.115 339.857 741.599 340.014 741.021 340.014C740.221 340.014 739.54 339.733 738.978 339.171C738.416 338.604 738.135 337.92 738.135 337.12C738.135 336.321 738.416 335.637 738.978 335.07Z" fill="#79828D"/>
<path d="M744.241 335.67H745.173V338.044C745.173 338.385 745.273 338.658 745.473 338.863C745.678 339.068 745.929 339.171 746.227 339.171C746.567 339.171 746.843 339.05 747.053 338.806C747.27 338.558 747.378 338.247 747.378 337.874V335.67H748.31V339.965H747.378V339.398C747.048 339.825 746.602 340.038 746.04 340.038C745.549 340.038 745.124 339.882 744.768 339.568C744.416 339.249 744.241 338.828 744.241 338.304V335.67Z" fill="#79828D"/>
<path d="M749.204 335.67H750.136V336.375C750.272 336.105 750.455 335.913 750.688 335.799C750.925 335.68 751.169 335.621 751.417 335.621C751.536 335.621 751.66 335.632 751.79 335.653V336.65C751.622 336.596 751.463 336.569 751.312 336.569C751.069 336.569 750.812 336.658 750.542 336.837C750.272 337.015 750.136 337.331 750.136 337.785V339.965H749.204V335.67Z" fill="#79828D"/>
<path d="M752.45 335.67H753.382V336.375C753.517 336.105 753.701 335.913 753.933 335.799C754.171 335.68 754.414 335.621 754.662 335.621C754.781 335.621 754.906 335.632 755.035 335.653V336.65C754.868 336.596 754.708 336.569 754.557 336.569C754.314 336.569 754.057 336.658 753.787 336.837C753.517 337.015 753.382 337.331 753.382 337.785V339.965H752.45V335.67Z" fill="#79828D"/>
<path d="M755.992 336.245C756.425 335.813 756.943 335.597 757.549 335.597C758.089 335.597 758.559 335.772 758.959 336.124C759.364 336.469 759.613 336.904 759.705 337.428C759.737 337.558 759.753 337.688 759.753 337.818C759.753 337.931 759.74 338.044 759.713 338.158H756.26C756.314 338.477 756.46 338.731 756.697 338.92C756.941 339.109 757.224 339.204 757.549 339.204C758.046 339.204 758.443 339.025 758.74 338.669L759.567 338.887C759.394 339.233 759.116 339.512 758.732 339.722C758.354 339.928 757.959 340.03 757.549 340.03C756.927 340.03 756.403 339.814 755.976 339.382C755.555 338.95 755.344 338.428 755.344 337.818C755.344 337.202 755.56 336.677 755.992 336.245ZM756.26 337.445H758.805C758.751 337.158 758.608 336.918 758.375 336.723C758.148 336.523 757.87 336.423 757.54 336.423C757.211 336.423 756.93 336.523 756.697 336.723C756.465 336.918 756.319 337.158 756.26 337.445Z" fill="#79828D"/>
<path d="M760.397 335.67H761.329V336.237C761.658 335.81 762.104 335.597 762.666 335.597C763.158 335.597 763.579 335.756 763.931 336.075C764.287 336.388 764.466 336.807 764.466 337.331V339.965H763.533V337.582C763.533 337.242 763.431 336.972 763.225 336.772C763.026 336.567 762.777 336.464 762.48 336.464C762.139 336.464 761.861 336.588 761.645 336.837C761.434 337.08 761.329 337.385 761.329 337.753V339.965H760.397V335.67Z" fill="#79828D"/>
<path d="M764.92 336.48V335.67H765.73V334.64L766.646 334.373V335.67H767.967V336.48H766.646V338.571C766.646 338.836 766.722 339.001 766.873 339.066C767.03 339.131 767.17 339.163 767.295 339.163C767.489 339.163 767.724 339.12 768 339.033V339.933C767.708 340.014 767.441 340.055 767.197 340.055C766.879 340.055 766.554 339.963 766.225 339.779C765.895 339.59 765.73 339.19 765.73 338.579V336.48H764.92Z" fill="#79828D"/>
<rect x="496" y="278.383" width="3.18402" height="35.0243" rx="1.59201" fill="#7B34E7"/>
<rect opacity="0.3" x="496" y="192.007" width="3.18402" height="84.3766" rx="1.59201" fill="#7B34E7" fill-opacity="0.5"/>
<rect x="586.368" y="252.911" width="3.18402" height="60.4965" rx="1.59201" fill="#7B34E7"/>
<rect opacity="0.3" x="586.368" y="192.007" width="3.18402" height="58.9044" rx="1.59201" fill="#7B34E7" fill-opacity="0.5"/>
<rect x="676.736" y="224.255" width="3.18402" height="89.1527" rx="1.59201" fill="#7B34E7"/>
<rect opacity="0.3" x="676.736" y="192.007" width="3.18402" height="30.2482" rx="1.59201" fill="#7B34E7" fill-opacity="0.5"/>
<rect x="767.104" y="240.175" width="3.18402" height="73.2326" rx="1.59201" fill="#7B34E7"/>
<rect opacity="0.3" x="767.104" y="192.007" width="3.18402" height="46.1684" rx="1.59201" fill="#7B34E7" fill-opacity="0.5"/>
<rect x="541.184" y="236.991" width="3.18402" height="76.4166" rx="1.59201" fill="#7B34E7"/>
<rect opacity="0.3" x="541.184" y="192.007" width="3.18402" height="42.9843" rx="1.59201" fill="#7B34E7" fill-opacity="0.5"/>
<rect x="631.552" y="291.12" width="3.18402" height="22.2882" rx="1.59201" fill="#7B34E7"/>
<rect opacity="0.3" x="631.552" y="192.007" width="3.18402" height="97.1127" rx="1.59201" fill="#7B34E7" fill-opacity="0.5"/>
<rect x="721.92" y="265.647" width="3.18402" height="47.7604" rx="1.59201" fill="#7B34E7"/>
<rect opacity="0.3" x="721.92" y="192.007" width="3.18402" height="71.6405" rx="1.59201" fill="#7B34E7" fill-opacity="0.5"/>
<rect x="520" y="285.882" width="3.18402" height="27.5252" rx="1.59201" fill="#7B34E7"/>
<rect opacity="0.3" x="520" y="218" width="3.18402" height="66.3108" rx="1.59201" fill="#7B34E7" fill-opacity="0.5"/>
<rect x="610.368" y="265.864" width="3.18402" height="47.5436" rx="1.59201" fill="#7B34E7"/>
<rect opacity="0.3" x="610.368" y="218" width="3.18402" height="46.2924" rx="1.59201" fill="#7B34E7" fill-opacity="0.5"/>
<rect x="700.736" y="243.343" width="3.18402" height="70.0642" rx="1.59201" fill="#7B34E7"/>
<rect opacity="0.3" x="700.736" y="218" width="3.18402" height="23.7718" rx="1.59201" fill="#7B34E7" fill-opacity="0.5"/>
<rect x="565.184" y="253.353" width="3.18402" height="60.055" rx="1.59201" fill="#7B34E7"/>
<rect opacity="0.3" x="565.184" y="218" width="3.18402" height="33.781" rx="1.59201" fill="#7B34E7" fill-opacity="0.5"/>
<rect x="655.552" y="295.892" width="3.18402" height="17.5161" rx="1.59201" fill="#7B34E7"/>
<rect opacity="0.3" x="655.552" y="218" width="3.18402" height="76.3199" rx="1.59201" fill="#7B34E7" fill-opacity="0.5"/>
<rect x="745.92" y="275.874" width="3.18402" height="37.5344" rx="1.59201" fill="#7B34E7"/>
<rect opacity="0.3" x="745.92" y="218" width="3.18402" height="56.3016" rx="1.59201" fill="#7B34E7" fill-opacity="0.5"/>
<path d="M284.424 225.394C268.875 225.394 255 237.401 255 237.401V309.116H477V210.123C477 210.123 469.785 201.683 458.376 198.949C437.811 194.023 434.941 229.989 416.875 229.989C403.605 229.989 402.689 207.516 384.996 205.467C367.302 203.419 359.321 255.027 330.799 254.445C309.432 254.009 296.44 225.394 284.424 225.394Z" fill="url(#paint0_linear_301_1951)" fill-opacity="0.4"/>
<path d="M255.37 237.247C255.37 237.247 268.875 225.349 284.424 225.349C297.365 225.349 309.432 253.917 330.798 254.352C359.321 254.932 367.302 203.411 384.995 205.456C402.689 207.501 403.605 229.937 416.875 229.937C434.94 229.937 437.811 194.03 458.375 198.949C469.785 201.677 477 210.104 477 210.104" stroke="#FF914D" stroke-width="2" stroke-linecap="round"/>
<path opacity="0.3" d="M382.28 188.867C382.28 180.693 388.906 174.067 397.08 174.067C405.254 174.067 411.88 180.693 411.88 188.867V309.117H382.28V188.867Z" fill="#FF914D"/>
<g filter="url(#filter1_d_301_1951)">
<circle cx="397.08" cy="210.697" r="9.25" fill="#FF914D"/>
<circle cx="397.08" cy="210.697" r="8.25" stroke="white" stroke-width="2"/>
</g>
<defs>
<filter id="filter0_d_301_1951" x="0" y="0" width="857" height="657" filterUnits="userSpaceOnUse" color-interpolation-filters="sRGB">
<feFlood flood-opacity="0" result="BackgroundImageFix"/>
<feColorMatrix in="SourceAlpha" type="matrix" values="0 0 0 0 0 0 0 0 0 0 0 0 0 0 0 0 0 0 127 0" result="hardAlpha"/>
<feOffset dy="30"/>
<feGaussianBlur stdDeviation="30"/>
<feComposite in2="hardAlpha" operator="out"/>
<feColorMatrix type="matrix" values="0 0 0 0 0 0 0 0 0 0 0 0 0 0 0.466667 0 0 0 0.08 0"/>
<feBlend mode="normal" in2="BackgroundImageFix" result="effect1_dropShadow_301_1951"/>
<feBlend mode="normal" in="SourceGraphic" in2="effect1_dropShadow_301_1951" result="shape"/>
</filter>
<filter id="filter1_d_301_1951" x="362.83" y="181.447" width="68.5" height="68.5" filterUnits="userSpaceOnUse" color-interpolation-filters="sRGB">
<feFlood flood-opacity="0" result="BackgroundImageFix"/>
<feColorMatrix in="SourceAlpha" type="matrix" values="0 0 0 0 0 0 0 0 0 0 0 0 0 0 0 0 0 0 127 0" result="hardAlpha"/>
<feOffset dy="5"/>
<feGaussianBlur stdDeviation="12.5"/>
<feColorMatrix type="matrix" values="0 0 0 0 0 0 0 0 0 0 0 0 0 0 0 0 0 0 0.1 0"/>
<feBlend mode="normal" in2="BackgroundImageFix" result="effect1_dropShadow_301_1951"/>
<feBlend mode="normal" in="SourceGraphic" in2="effect1_dropShadow_301_1951" result="shape"/>
</filter>
<linearGradient id="paint0_linear_301_1951" x1="366" y1="198.486" x2="366" y2="309.116" gradientUnits="userSpaceOnUse">
<stop stop-color="#FF914D"/>
<stop offset="1" stop-color="#FF914D" stop-opacity="0"/>
</linearGradient>
<clipPath id="clip0_301_1951">
<rect width="13" height="14" fill="white" transform="translate(645 52)"/>
</clipPath>
</defs>
</svg>
